<svg width="30" height="30" viewBox="0 0 30 30" fill="none" xmlns="http://www.w3.org/2000/svg">
<path d="M0 0H29.93V16.15L28.44 18.47L29.93 20.53V29.93H0V14.7L0.93 13.63L0 12.63V0Z" fill="#016FD0"/>
<path d="M5.81006 20.8499V16.1499H10.8101L11.3501 16.8499L11.9001 16.1499H29.9301V20.5299C29.6294 20.7199 29.2852 20.8301 28.9301 20.8499L18.9301 20.8499L18.3301 20.1099V20.8499H16.3301V19.5899C16.0649 19.7265 15.7677 19.7887 15.4701 19.7699H14.8001V20.8499H11.8001L11.2601 20.1399L10.7201 20.8499H5.81006Z" fill="white"/>
<path d="M0 12.6101L1.12 10.0001H3.06L3.7 11.4601V10.0001H6.11L6.49 11.0601L6.86 10.0001H17.68V10.5301C18.1058 10.1822 18.6402 9.99468 19.19 10.0001L22.7 10.0001L23.32 11.4501V10.0001H25.32L25.88 10.8301V10.0001H27.88V14.7001H25.88L25.35 13.8601V14.7001H22.35L22.1 14.0001H21.31L21.01 14.7401H19C18.5112 14.7339 18.0417 14.5489 17.68 14.2201V14.7401H14.68L14.08 14.0001V14.7401H2.77L2.48 14.0001H1.68L1.39 14.7401H0V12.6101Z" fill="white"/>
<path d="M1.52 10.5801L0 14.1001H1L1.28 13.3901H2.89L3.17 14.1001H4.17L2.67 10.5801H1.52ZM2.08 11.4001L2.57 12.6301H1.57L2.08 11.4001Z" fill="#016FD0"/>
<path d="M4.28003 14.0901V10.5801H5.68003L6.50003 12.8501L7.29003 10.5801H8.68003V14.0901H7.80003V11.5001L6.87003 14.0901H6.10003L5.16003 11.5001V14.0901H4.28003Z" fill="#016FD0"/>
<path d="M9.28003 14.0901V10.5801H12.15V11.3601H10.15V12.0001H12.1V12.7401H10.17V13.3601H12.17V14.1201L9.28003 14.0901Z" fill="#016FD0"/>
<path d="M12.6599 10.58V14.1H13.5399V12.85H13.9099L14.9999 14.1H15.9999L14.8399 12.8C15.4072 12.7628 15.8464 12.2885 15.8399 11.72C15.8409 11.4014 15.7085 11.0969 15.4748 10.8803C15.2412 10.6637 14.9275 10.5548 14.6099 10.58H12.6599ZM13.5399 11.36H14.5399C14.6885 11.3356 14.8375 11.4013 14.9197 11.5274C15.0019 11.6536 15.0019 11.8164 14.9197 11.9425C14.8375 12.0686 14.6885 12.1343 14.5399 12.11L13.5399 12.11V11.36Z" fill="#016FD0"/>
<path d="M17.1 14.0901H16.21V10.5801H17.1V14.0901Z" fill="#016FD0"/>
<path d="M19.2301 14.0899H19.0001C18.5598 14.085 18.1426 13.8919 17.854 13.5593C17.5653 13.2267 17.4329 12.7865 17.4901 12.3499C17.4401 11.8704 17.6076 11.3938 17.9465 11.0511C18.2855 10.7083 18.7601 10.5354 19.2401 10.5799L20.2401 10.5799V11.4099H19.2401C19.0015 11.4166 18.7767 11.5234 18.6207 11.7041C18.4647 11.8849 18.3919 12.1228 18.4201 12.3599C18.374 12.6276 18.457 12.9014 18.6441 13.0983C18.8312 13.2953 19.1004 13.3923 19.3701 13.3599H19.6001L19.2301 14.0899Z" fill="#016FD0"/>
<path d="M21.1499 10.5801L19.6299 14.1001H20.6299L20.9099 13.3901H22.5299L22.8099 14.1001H23.8099L22.2899 10.5801H21.1499ZM21.7099 11.4001L22.1999 12.6301H21.1999L21.6999 11.4001H21.7099Z" fill="#016FD0"/>
<path d="M23.9099 14.0901V10.5801H24.9999L26.4199 12.7901V10.5801H27.2999V14.0901H26.2499L24.7899 11.8301V14.0901H23.9099Z" fill="#016FD0"/>
<path d="M6.40991 20.25V16.73H9.27991V17.52H7.27991V18.12H9.22991V18.86H7.29991V19.49H9.29991V20.25H6.40991Z" fill="#016FD0"/>
<path d="M20.47 20.25V16.73H23.34V17.52H21.34V18.12H23.27V18.86H21.36V19.49H23.36V20.25H20.47Z" fill="#016FD0"/>
<path d="M9.39011 20.25L10.7901 18.51L9.36011 16.73H10.4701L11.3201 17.83L12.1701 16.73H13.2401L11.8301 18.49L13.2301 20.25H12.1201L11.2901 19.17L10.4801 20.25H9.39011Z" fill="#016FD0"/>
<path d="M13.3301 16.7299V20.2499H14.2301V19.1399H15.1601C15.5103 19.1862 15.8635 19.0785 16.1282 18.8445C16.3929 18.6105 16.5431 18.2732 16.5401 17.9199C16.547 17.588 16.4126 17.2688 16.1703 17.0418C15.9281 16.8148 15.6008 16.7014 15.2701 16.7299L13.3301 16.7299ZM14.2301 17.5299H15.2301C15.342 17.5183 15.4535 17.5556 15.5359 17.6323C15.6183 17.7089 15.6636 17.8174 15.6601 17.9299C15.6632 18.0431 15.6182 18.1524 15.5363 18.2305C15.4543 18.3087 15.343 18.3484 15.2301 18.3399L14.2301 18.3399V17.5299Z" fill="#016FD0"/>
<path d="M16.9199 16.73V20.25H17.7999V19H18.1699L19.1699 20.25H20.2999L19.1399 19C19.7088 18.9578 20.1468 18.4804 20.1399 17.91C20.1409 17.5914 20.0085 17.2869 19.7749 17.0703C19.5412 16.8537 19.2275 16.7448 18.9099 16.77L16.9199 16.73ZM17.7999 17.52H18.7999C19.0154 17.5137 19.199 17.6754 19.2199 17.89C19.2042 18.0991 19.0296 18.2606 18.8199 18.26H17.8199L17.7999 17.52Z" fill="#016FD0"/>
<path d="M23.7501 20.25V19.49H25.5101C25.7701 19.49 25.8801 19.35 25.8801 19.19C25.8801 19.03 25.7701 18.89 25.5101 18.89H24.7201C24.4324 18.9135 24.1486 18.8115 23.9416 18.6103C23.7346 18.4091 23.6247 18.1282 23.6401 17.84C23.6401 17.28 23.9901 16.73 25.0201 16.73H26.7301L26.3601 17.52H24.8801C24.6001 17.52 24.5101 17.67 24.5101 17.82C24.5127 17.9022 24.5479 17.98 24.6079 18.0363C24.6679 18.0926 24.7479 18.1227 24.8301 18.12L25.6701 18.12C25.9522 18.0916 26.233 18.1843 26.4428 18.375C26.6525 18.5657 26.7715 18.8365 26.7701 19.12C26.8113 19.4315 26.7037 19.7442 26.4795 19.9644C26.2554 20.1846 25.9408 20.2867 25.6301 20.24L23.7501 20.25Z" fill="#016FD0"/>
<path d="M27.0001 20.25V19.49H28.7601C29.0201 19.49 29.1301 19.35 29.1301 19.19C29.1301 19.03 29.0201 18.89 28.7601 18.89H27.9601C27.674 18.9104 27.393 18.8071 27.1883 18.6063C26.9836 18.4054 26.875 18.1264 26.8901 17.84C26.8901 17.28 27.2401 16.73 28.2701 16.73H30.0001L29.6301 17.52H28.1101C27.8201 17.52 27.7401 17.67 27.7401 17.82C27.7427 17.9022 27.7779 17.98 27.8379 18.0363C27.8979 18.0926 27.9778 18.1227 28.0601 18.12L28.8901 18.12C29.1738 18.0886 29.4573 18.1799 29.6694 18.3709C29.8815 18.562 30.0018 18.8346 30.0001 19.12C30.0222 19.4286 29.907 19.7313 29.6853 19.9472C29.4636 20.1631 29.158 20.2702 28.8501 20.24L27.0001 20.25Z" fill="#016FD0"/>
</svg>
