<svg width="72" height="19" viewBox="0 0 72 19" fill="none" xmlns="http://www.w3.org/2000/svg">
<path d="M13.7993 18.8628C19.0062 18.8914 23.3079 14.8058 23.5473 9.60431C23.5326 7.04965 22.4915 4.60816 20.6582 2.829C18.8249 1.04984 16.3533 0.0823996 13.7993 0.14428L9.47966 0.144279C6.95702 0.0686053 4.51404 1.03248 2.72266 2.81024C0.931285 4.58801 -0.0511963 7.02357 0.00523308 9.54672C0.0290358 14.7157 4.23868 18.8867 9.40767 18.8628H13.7993Z" fill="#0079BE"/>
<path d="M9.43645 0.921887C4.72077 0.921887 0.897949 4.74471 0.897949 9.46039C0.897949 14.1761 4.72077 17.9989 9.43645 17.9989C14.1521 17.9989 17.975 14.1761 17.975 9.46039C17.9788 7.19467 17.0804 5.02064 15.4783 3.41853C13.8762 1.81642 11.7022 0.918056 9.43645 0.921887ZM4.02249 9.46039C4.04573 7.24109 5.42113 5.26075 7.49261 4.464L7.49261 14.5432C5.38906 13.7384 4.00595 11.7126 4.02249 9.46039ZM11.3659 14.5432V4.464C13.4385 5.27757 14.8016 7.27706 14.8016 9.50359C14.8016 11.7301 13.4385 13.7296 11.3659 14.5432Z" fill="white"/>
<path d="M26.5424 4.16153C26.5424 3.26881 26.0816 3.3264 25.6353 3.3264V3.02403H28.515C29.4982 2.92793 30.4773 3.24344 31.2194 3.89551C31.9615 4.54759 32.4003 5.47795 32.4315 6.46535C32.4315 7.43007 31.8699 9.87787 28.3998 9.87787H26.9599H25.6353V9.66189C26.2256 9.66189 26.5136 9.58989 26.5424 8.91315V4.16153ZM27.5071 8.78356C27.5071 9.5467 28.0399 9.63309 28.5294 9.63309C29.3409 9.68203 30.1321 9.36757 30.6885 8.77494C31.245 8.18231 31.5091 7.37291 31.4092 6.56614C31.4918 5.72252 31.1985 4.88537 30.6075 4.27772C30.0165 3.67007 29.1878 3.35366 28.3422 3.4128C28.0881 3.39841 27.8333 3.39841 27.5791 3.4128L27.5791 8.78356H27.5071Z" fill="white"/>
<path d="M32.7625 9.66201H32.9496C33.2232 9.66201 33.4248 9.66201 33.4248 9.34524V6.68145C33.4248 6.24949 33.2808 6.19189 32.9064 5.99031V5.90392C33.2632 5.80927 33.6142 5.69388 33.9576 5.55834C34.0142 5.54371 34.0737 5.54371 34.1303 5.55835C34.1303 5.55835 34.2023 5.55834 34.2023 5.70233V9.34524C34.2023 9.66201 34.4183 9.66201 34.6919 9.66201H34.8647V9.92119H33.828H32.7625V9.66201ZM33.8136 3.90248C33.5488 3.89469 33.3383 3.67777 33.3384 3.41292C33.3858 3.18778 33.5835 3.02599 33.8136 3.02415C33.9382 3.02025 34.0592 3.06707 34.1487 3.15391C34.2383 3.24074 34.2888 3.36018 34.2887 3.48491C34.2601 3.72718 34.0575 3.91139 33.8136 3.91688L33.8136 3.90248Z" fill="white"/>
<path d="M35.8008 6.73901C35.8008 6.37903 35.6856 6.27824 35.2248 6.09106V5.90387C35.6669 5.77449 36.0998 5.61575 36.5207 5.42871C36.5207 5.42871 36.5207 5.42871 36.5207 5.5295V6.16305C36.9908 5.73797 37.588 5.47985 38.2198 5.42871C39.0549 5.42871 39.3429 6.04786 39.3429 6.86859V9.34519C39.3429 9.66197 39.5588 9.66197 39.8324 9.66197H40.0196V9.92114H38.9685H37.9174V9.66197H38.0902C38.3638 9.66197 38.5653 9.66197 38.5653 9.34519V6.7966C38.5653 6.23505 38.2198 5.96147 37.6582 5.96147C37.2468 6.02768 36.857 6.19053 36.5207 6.43663L36.5207 9.31639C36.5207 9.63317 36.7367 9.63317 37.0103 9.63317H37.183V9.89235H36.1463H35.0952V9.66197H35.268C35.5416 9.66197 35.7432 9.66197 35.7432 9.34519V6.73901H35.8008Z" fill="white"/>
<path d="M40.8115 7.21412C40.7954 7.40096 40.7954 7.58883 40.8115 7.77567C40.7751 8.63081 41.4019 9.3704 42.2514 9.47473C42.7749 9.44214 43.2607 9.19141 43.5905 8.78359L43.7201 8.92758C43.3359 9.5744 42.6567 9.98943 41.9059 10.0363C41.3745 10.0106 40.876 9.77129 40.5235 9.37276C40.1711 8.97422 39.9945 8.45022 40.034 7.91966C39.9486 7.32254 40.1135 6.71665 40.4896 6.2451C40.8658 5.77355 41.4199 5.47815 42.021 5.42866C42.4471 5.40512 42.8644 5.55605 43.1768 5.84671C43.4891 6.13737 43.6697 6.5427 43.6769 6.96934C43.6835 7.03156 43.6835 7.0943 43.6769 7.15652L43.5905 7.15652L40.8115 7.21412ZM42.5538 6.89734C42.7986 6.89734 42.8274 6.76775 42.8274 6.65256C42.8479 6.41636 42.767 6.18258 42.6049 6.00953C42.4429 5.83647 42.2149 5.74046 41.9778 5.74544C41.3731 5.74544 40.9699 6.1918 40.8403 6.89734H42.5538Z" fill="white"/>
<path d="M43.8928 9.66194H44.1664C44.44 9.66194 44.6271 9.66194 44.6271 9.34516V6.58059C44.6271 6.27821 44.2672 6.22062 44.1232 6.13422V5.99023C44.8431 5.68786 45.2319 5.42868 45.3183 5.42868C45.4047 5.42868 45.4047 5.42868 45.4047 5.55827V6.451C45.6495 6.06223 46.0526 5.42868 46.6574 5.42868C46.9542 5.42046 47.2034 5.6505 47.2189 5.94704C47.2268 6.07551 47.1822 6.20166 47.0953 6.29665C47.0085 6.39164 46.8868 6.44734 46.7582 6.451C46.4558 6.451 46.4558 6.22062 46.1102 6.22062C45.7052 6.27689 45.4005 6.61816 45.3903 7.02695V9.34516C45.3903 9.66193 45.5919 9.66193 45.8654 9.66193H46.4126V9.92111H44.9727H43.8064V9.66194H43.8928Z" fill="white"/>
<path d="M47.6799 8.55313C47.7304 9.20764 48.2623 9.721 48.9182 9.74824C49.4941 9.74824 49.7101 9.40266 49.7101 9.05709C49.7101 7.89079 47.5647 8.26516 47.5647 6.69568C47.5855 6.31989 47.7619 5.96975 48.0515 5.72934C48.3411 5.48893 48.7177 5.37996 49.091 5.42859C49.4781 5.43554 49.8581 5.53423 50.1997 5.71656V6.72448H49.9837C49.9605 6.17681 49.5095 5.74487 48.9614 5.74536C48.7732 5.72535 48.5851 5.78333 48.4409 5.90577C48.2967 6.02822 48.209 6.20443 48.1982 6.39331C48.1982 7.54522 50.4733 7.18524 50.4733 8.72592C50.4733 9.37387 49.9549 10.065 48.7886 10.065C48.37 10.0486 47.9609 9.93522 47.5935 9.73384L47.5215 8.59633H47.7087L47.6799 8.55313Z" fill="white"/>
<path d="M59.3428 4.8384H59.0404C58.9759 4.34939 58.7196 3.9061 58.3279 3.60627C57.9363 3.30645 57.4415 3.17472 56.9526 3.24013C56.1559 3.2391 55.3967 3.57825 54.866 4.1723C54.3352 4.76636 54.0833 5.55878 54.1736 6.35028C54.0641 8.0729 55.3361 9.57385 57.0534 9.7484C58.0444 9.75797 58.8886 9.03081 59.026 8.04934L59.2564 8.04934L59.026 9.48922C58.3502 9.81102 57.6144 9.98761 56.8662 10.0076C55.8992 10.0364 54.9637 9.66191 54.2837 8.97374C53.6037 8.28557 53.2405 7.34568 53.2809 6.37908C53.359 4.40195 55.0182 2.8585 56.9958 2.92336C57.7916 2.96842 58.5747 3.14352 59.314 3.44172L59.4004 4.8816L59.3428 4.8384Z" fill="white"/>
<path d="M59.7029 9.66183H59.8901C60.1636 9.66183 60.3652 9.66183 60.3652 9.34506V3.8735C60.3652 3.23995 60.2068 3.21115 59.8469 3.11036V3.02397C60.1926 2.90967 60.5295 2.7701 60.8548 2.6064C60.9223 2.56005 60.9947 2.52141 61.0708 2.49121C61.0708 2.49121 61.1428 2.49121 61.1428 2.6352V9.34505C61.1428 9.66183 61.3588 9.66183 61.6323 9.66183H61.8051V9.92101H60.7684H59.7029V9.66183Z" fill="white"/>
<path d="M65.995 9.37381C65.995 9.56099 66.1102 9.56099 66.2686 9.56099H66.6717V9.76257C66.1853 9.82947 65.7041 9.93051 65.2319 10.0649V9.24422C64.7774 9.72229 64.1617 10.0147 63.504 10.0649C63.1991 10.0752 62.9048 9.95241 62.6975 9.72856C62.4903 9.50471 62.3905 9.20186 62.4241 8.89864V6.37885C62.4241 6.13407 62.4241 5.88929 61.8337 5.83169V5.64451C62.1793 5.64451 62.9712 5.64451 63.1008 5.64451C63.2304 5.64451 63.2016 5.64451 63.2016 5.91809V8.39469C63.2016 8.69706 63.2016 9.53219 64.0512 9.53219C64.4998 9.46 64.9163 9.25427 65.2463 8.94184L65.2463 6.29246C65.2463 6.10527 64.7711 5.99008 64.4255 5.88929V5.7165C65.3039 5.7165 65.8654 5.58691 65.9518 5.58691C66.0382 5.58691 65.9518 5.58691 65.9518 5.7597V9.37381H65.995Z" fill="white"/>
<path d="M67.9534 6.13409C68.3418 5.74574 68.8483 5.49755 69.3932 5.42854C69.9159 5.44255 70.4098 5.67128 70.7585 6.06088C71.1072 6.45048 71.28 6.96653 71.2363 7.48758C71.2934 8.84505 70.2462 9.99507 68.8893 10.065C68.4158 10.0688 67.9494 9.94977 67.5358 9.7194L67.2334 9.94978L67.0318 9.83459C67.1191 9.25795 67.1624 8.67552 67.1614 8.09233V3.87347C67.1614 3.23992 67.0174 3.21112 66.6431 3.11033V3.02394C67.0015 2.88944 67.3482 2.7257 67.6798 2.53438C67.7455 2.48521 67.8183 2.44637 67.8958 2.41919C67.8958 2.41919 67.8958 2.41919 67.8958 2.56318V6.13409H67.9534ZM67.9534 8.81227C67.9759 9.35693 68.4163 9.79111 68.9613 9.80579C70.0124 9.80579 70.4012 8.78347 70.4012 7.90514C70.4848 6.94906 69.8318 6.08461 68.8893 5.90371C68.5329 5.9426 68.2015 6.10572 67.9534 6.36447V8.78347V8.81227Z" fill="white"/>
<path d="M25.6353 15.6229H25.7072C25.8944 15.6229 26.096 15.6229 26.096 15.3205V12.5272C26.096 12.2392 25.8944 12.2104 25.7072 12.2104H25.6353V12.052H26.4272H27.2623V12.2104H27.1903C26.9887 12.2104 26.7872 12.2104 26.7872 12.5272V15.3205C26.7872 15.5941 26.9887 15.6229 27.1903 15.6229H27.2623V15.7813H25.6353V15.6229Z" fill="white"/>
<path d="M27.2623 15.8101H26.4128H25.6353V15.5941H25.736C25.9232 15.5941 26.1104 15.5941 26.1104 15.3205V12.5272C26.1104 12.2536 25.9232 12.2392 25.736 12.2392H25.6353V12.0376H27.3055V12.2392H27.2191C27.0175 12.2392 26.8448 12.2392 26.8448 12.5272V15.3205C26.8448 15.5797 27.0175 15.5941 27.2191 15.5941H27.3055V15.8101L27.2623 15.8101ZM27.2623 15.8101V15.6949C27.0607 15.6949 26.8448 15.6949 26.8448 15.3637V12.5272C26.8448 12.2248 27.0607 12.196 27.2623 12.196V12.0808H25.6785V12.196C25.8656 12.196 26.096 12.196 26.096 12.5272V15.3205C26.096 15.6085 25.8656 15.6517 25.6785 15.6517V15.7669H26.4416H27.2623V15.8101Z" fill="white"/>
<path d="M30.9196 14.7302V12.7143C30.9367 12.5838 30.8953 12.4524 30.8064 12.3552C30.7176 12.258 30.5904 12.205 30.4588 12.2104H30.3436V12.052H31.0924H31.7403V12.2104H31.6827C31.4523 12.2104 31.2076 12.2104 31.2076 12.9015V15.3205C31.1928 15.5026 31.1928 15.6856 31.2076 15.8677L31.006 15.8677L28.2846 12.8007V15.0038C28.2846 15.4645 28.371 15.6229 28.7885 15.6229H28.8749V15.7813H27.4351V15.6229H27.5071C27.8814 15.6229 27.9822 15.3781 27.9822 14.9462V12.6999C27.9861 12.5715 27.9378 12.4469 27.8482 12.3546C27.7587 12.2624 27.6356 12.2103 27.5071 12.2104L27.4351 12.2104V12.052H28.0398H28.515L30.8908 14.7302H30.9196Z" fill="white"/>
<path d="M31.2364 15.8821H31.0204L28.299 12.8583V15.0038C28.299 15.4645 28.3854 15.5941 28.7886 15.5941H28.9038V15.8101H28.2126H27.4927V15.5941H27.5935C27.9534 15.5941 28.0542 15.3637 28.0542 14.9462V12.6999C28.0542 12.4455 27.8479 12.2392 27.5935 12.2392H27.4927V12.0376H28.6302L30.9772 14.687V12.7143C30.9772 12.2968 30.6892 12.2392 30.5308 12.2392H30.3868V12.0376H31.8267V12.2392H31.6827C31.4523 12.2392 31.2364 12.2392 31.222 12.9015V15.3205C31.222 15.5077 31.222 15.6949 31.222 15.8533L31.2364 15.8821ZM31.0348 15.8821H31.2076C31.1924 15.7096 31.1924 15.5362 31.2076 15.3637V12.9015C31.2076 12.2536 31.4811 12.196 31.7115 12.196V12.0808H30.3436V12.196H30.4444C30.5822 12.1862 30.7171 12.2388 30.812 12.3392C30.9068 12.4397 30.9516 12.5773 30.934 12.7143L30.934 14.7302L28.5438 12.0808H27.4783V12.196C27.7566 12.196 27.9822 12.4216 27.9822 12.6999V14.9462C27.9822 15.3781 27.867 15.6517 27.4783 15.6517V15.7669H28.1838H28.8462V15.6517C28.4286 15.6517 28.3134 15.4645 28.3134 15.0038V12.7431L31.0924 15.8389L31.0348 15.8821Z" fill="white"/>
<path d="M32.561 12.3258C32.1579 12.3258 32.1435 12.4122 32.0571 12.8153H31.8987C31.8987 12.6569 31.8987 12.5129 31.9707 12.3546C32.0427 12.1962 31.9707 12.0522 31.9707 11.9082H32.1003C32.1003 12.0666 32.2731 12.0522 32.417 12.0522H35.1672C35.3112 12.0522 35.4552 12.0522 35.4552 11.8938H35.5848C35.5848 12.0378 35.5848 12.1818 35.5848 12.3258C35.5848 12.4698 35.5848 12.6137 35.5848 12.7577H35.4264C35.4264 12.5705 35.4264 12.2538 35.0376 12.2538H34.1593V15.1335C34.1593 15.5511 34.3465 15.5943 34.6057 15.5943H34.7064V15.7527H32.8922V15.5943H32.993C33.281 15.5943 33.4394 15.5943 33.4394 15.1479V12.2682L32.561 12.3258Z" fill="white"/>
<path d="M34.6633 15.8103H33.785H32.8922V15.5943H33.0218C33.3098 15.5943 33.4394 15.5943 33.4394 15.1767V12.297H32.5898H33.4826V15.1767C33.4826 15.6087 33.3098 15.6519 33.0218 15.6519H32.9354V15.7527H34.6633V15.6519H34.5625C34.3033 15.6519 34.0873 15.6519 34.0873 15.1623V12.2826H34.9944C35.3544 12.2826 35.3976 12.585 35.412 12.7865H35.5272C35.5272 12.6569 35.5272 12.513 35.5272 12.369V11.9658H35.4552C35.4552 12.1098 35.2824 12.1242 35.1384 12.1242H32.4171C32.2875 12.1242 32.1579 12.1242 32.1147 11.9658H32.0139C32.0282 12.1094 32.0282 12.2541 32.0139 12.3978C32.0139 12.5418 32.0139 12.6857 32.0139 12.8297H32.1291C32.2011 12.4554 32.2443 12.3402 32.6474 12.3402C32.2443 12.3402 32.2587 12.4266 32.1723 12.8153H31.9563C31.9563 12.6713 31.9563 12.5274 31.9563 12.369C31.9701 12.2205 31.9701 12.0711 31.9563 11.9226H32.1291C32.1291 12.0522 32.2731 12.0666 32.4027 12.0666H35.1816C35.34 12.0666 35.4408 12.0666 35.4552 11.9226H35.5992C35.5913 12.0617 35.5913 12.2011 35.5992 12.3402C35.5992 12.4842 35.5992 12.6281 35.5992 12.7721L35.412 12.8441C35.412 12.6425 35.412 12.3402 35.0377 12.3402H34.1881V15.2199C34.1881 15.6231 34.3465 15.6519 34.6057 15.6519H34.7353V15.8679L34.6633 15.8103Z" fill="white"/>
<path d="M35.7864 15.6229C35.9879 15.6229 36.1895 15.6229 36.1895 15.3205V12.5272C36.1895 12.2392 35.9879 12.2104 35.7864 12.2104V12.052H37.1111H38.4789C38.4789 12.2824 38.4789 12.6424 38.4789 12.8727H38.3206C38.3206 12.5272 38.2342 12.2536 37.6726 12.2536H36.9239V13.6935H37.5574C37.8742 13.6935 37.9462 13.5063 37.9894 13.2183H38.1478C38.1478 13.4343 38.1478 13.6359 38.1478 13.8519C38.1478 14.0678 38.1478 14.255 38.1478 14.4566H37.9894C37.9894 14.1398 37.9894 13.9238 37.5718 13.9238H36.9239V15.1765C36.9239 15.5221 37.2406 15.5221 37.5718 15.5221C38.2198 15.5221 38.4933 15.5221 38.6661 14.8742H38.8101C38.7381 15.1621 38.6805 15.4357 38.6229 15.7237H35.7432V15.5653L35.7864 15.6229Z" fill="white"/>
<path d="M38.6373 15.8101H37.1974H35.7576V15.5941H35.8584C36.0599 15.5941 36.2327 15.5941 36.2327 15.3205V12.5272C36.2327 12.2536 36.0599 12.2392 35.8584 12.2392H35.7576V12.0376H38.5077C38.5077 12.124 38.5077 12.2248 38.5077 12.3256C38.5077 12.4264 38.5077 12.6999 38.5077 12.8583H38.3206C38.3206 12.5128 38.2486 12.268 37.7014 12.2536H36.9815V13.6071H37.5862C37.903 13.6071 37.9462 13.4487 37.9894 13.1607H38.191C38.191 13.3767 38.191 13.5783 38.191 13.7943C38.191 14.0102 38.191 14.1974 38.191 14.399H38.0038C38.0038 14.0822 38.0038 13.895 37.615 13.895H36.9959V15.1189C36.9959 15.4357 37.2694 15.4357 37.615 15.4357C38.263 15.4357 38.5221 15.4357 38.6805 14.8022H38.8533C38.7813 15.0757 38.7093 15.3637 38.6661 15.6373L38.6373 15.8101ZM38.6373 15.8101C38.6373 15.5509 38.7381 15.2773 38.8101 15.0038H38.7093C38.5509 15.6085 38.2342 15.6661 37.6006 15.6517C37.2694 15.6517 36.9383 15.6517 36.9383 15.2917V13.9382H37.6006C37.9606 13.9382 38.0038 14.1542 38.0326 14.4566H38.1478C38.1478 14.2694 38.1478 14.0678 38.1478 13.8806C38.1478 13.6935 38.1478 13.4775 38.1478 13.2759H38.0182C38.0182 13.5495 37.903 13.7511 37.5718 13.7367H36.9239V12.2968H37.687C38.2342 12.2968 38.335 12.5848 38.3494 12.9159H38.4645C38.4645 12.7575 38.4645 12.5704 38.4645 12.3976C38.4568 12.3114 38.4568 12.2246 38.4645 12.1384H35.8152V12.2536C36.0023 12.2536 36.2327 12.2536 36.2327 12.5848V15.3781C36.2327 15.6661 36.0023 15.7093 35.8152 15.7093V15.8101H38.6229L38.6373 15.8101Z" fill="white"/>
<path d="M39.5445 12.628C39.5445 12.2392 39.3285 12.2104 39.1701 12.2104H39.0693V12.052H39.8901H40.754C41.4307 12.052 42.0211 12.2392 42.0211 13.0023C42.0062 13.4409 41.7092 13.8194 41.2868 13.9382L42.1939 15.3061C42.2994 15.4951 42.496 15.6152 42.7122 15.6229V15.7813H41.7619C41.3528 15.2317 40.9823 14.6544 40.6532 14.0534L40.2932 14.0534V15.1909C40.2932 15.6085 40.4948 15.6229 40.7396 15.6229H40.8404V15.7813H39.0693V15.6229H39.1701C39.3573 15.6229 39.5445 15.5365 39.5445 15.3349V12.628ZM40.2212 13.8663H40.4948C41.0276 13.8663 41.3156 13.6647 41.3156 13.0311C41.3332 12.82 41.257 12.6118 41.1072 12.4619C40.9574 12.3121 40.7492 12.2359 40.538 12.2536L40.2212 12.2536V13.8663Z" fill="white"/>
<path d="M42.7122 15.8101H42.1939C42.0211 15.8101 41.8627 15.8101 41.6755 15.8101C41.2647 15.2667 40.8941 14.6941 40.5668 14.0966H40.322V15.2053C40.322 15.6085 40.4948 15.6085 40.7396 15.6085H40.8548V15.8245H39.9477H39.1701V15.6085H39.2997C39.4869 15.6085 39.6453 15.5221 39.6453 15.3493V12.6279C39.6453 12.2392 39.4581 12.2392 39.2997 12.2392H39.1701V12.0376H40.754C41.4308 12.0376 42.0499 12.2248 42.0499 13.0023C42.0322 13.4431 41.7376 13.8243 41.3156 13.9526L42.2227 15.2917C42.3154 15.4771 42.505 15.5942 42.7122 15.5941V15.7813V15.8101ZM40.2213 14.0246H40.5956C40.9251 14.6222 41.2905 15.1992 41.6899 15.7525L42.1939 15.7525H42.6979V15.6373C42.4807 15.6325 42.2829 15.5115 42.1795 15.3205L41.2436 13.8806C41.6665 13.7716 41.966 13.3957 41.9779 12.9591C41.9779 12.2248 41.402 12.052 40.7252 12.052H39.0981V12.1672H39.1701C39.3285 12.1672 39.5733 12.1672 39.5733 12.5992V15.3061C39.5733 15.5221 39.3717 15.6229 39.1701 15.6229H39.0981V15.7237H40.7396V15.6229H40.6676C40.4228 15.6229 40.2069 15.6229 40.2069 15.1621V14.0246H40.2213ZM40.2213 13.8806V12.2536C40.3265 12.2419 40.4328 12.2419 40.538 12.2536C40.7628 12.2385 40.9824 12.3253 41.136 12.4901C41.2895 12.6548 41.3608 12.88 41.33 13.1031C41.33 13.7367 41.0276 13.9526 40.4948 13.9526L40.2213 13.8806ZM40.4948 13.8806C41.0132 13.8806 41.2868 13.6935 41.2868 13.0743C41.304 12.8697 41.2311 12.6677 41.0873 12.5211C40.9435 12.3745 40.743 12.2979 40.538 12.3112C40.4424 12.2993 40.3457 12.2993 40.25 12.3112V13.8375L40.4948 13.8806Z" fill="white"/>
<path d="M46.3407 14.7302V12.7143C46.3584 12.5812 46.3152 12.4471 46.223 12.3493C46.1308 12.2516 45.9995 12.2006 45.8656 12.2104H45.7504V12.052H46.4991H47.1614V12.2104H47.0895C46.8735 12.2104 46.6143 12.2104 46.6143 12.9015V15.3205C46.6143 15.5077 46.6143 15.6949 46.6143 15.8677H46.4127L43.6913 12.8007V15.0038C43.6913 15.4645 43.7921 15.6229 44.1953 15.6229H44.2961V15.7813H42.8562V15.6229H42.9282C43.3026 15.6229 43.4178 15.3781 43.4178 14.9462V12.6999C43.4178 12.4296 43.1986 12.2104 42.9282 12.2104H42.8562V12.052H43.4754H43.9505L46.3263 14.7302H46.3407Z" fill="white"/>
<path d="M46.6431 15.8821H46.4271L43.7201 12.8583V15.0038C43.7201 15.4645 43.7921 15.5941 44.1953 15.5941H44.3105V15.8101H43.6338H42.8994V15.5941H42.9858C43.3458 15.5941 43.4466 15.3637 43.4466 14.9462V12.6999C43.4466 12.4455 43.2403 12.2392 42.9858 12.2392H42.8994V12.0376H44.0225L46.3695 14.687V12.7143C46.3874 12.5888 46.3473 12.462 46.2605 12.3695C46.1737 12.2771 46.0496 12.2292 45.9232 12.2392H45.7936V12.0376H47.2335V12.2392H47.0895C46.8735 12.2392 46.6431 12.2392 46.6431 12.9015V15.3205C46.6279 15.4978 46.6279 15.676 46.6431 15.8533V15.8821ZM46.4415 15.8821H46.6143C46.6143 15.7237 46.6143 15.5509 46.6143 15.3637V12.9015C46.6143 12.2536 46.8879 12.196 47.1183 12.196V12.0808H45.7936V12.196H45.88C46.0178 12.1862 46.1527 12.2388 46.2475 12.3392C46.3424 12.4397 46.3871 12.5773 46.3695 12.7143L46.3695 14.7302L43.9649 12.0808H42.8994V12.196C43.0343 12.192 43.1648 12.2438 43.2602 12.3392C43.3556 12.4346 43.4074 12.5651 43.4034 12.6999L43.4034 14.9462C43.4034 15.3781 43.2882 15.6517 42.8994 15.6517V15.7525H44.2673V15.6517C43.8497 15.6517 43.749 15.4645 43.749 15.0038V12.7431L46.5135 15.8389L46.4415 15.8821Z" fill="white"/>
<path d="M48.0253 15.0184C47.9777 15.1548 47.9392 15.2943 47.9101 15.4359C47.9101 15.5943 48.1405 15.6231 48.3133 15.6231V15.7815H47.0894V15.6231C47.3055 15.6217 47.4966 15.4827 47.5645 15.2775L48.414 12.8297C48.4924 12.6125 48.5597 12.3914 48.6156 12.1674C48.7807 12.1053 48.9398 12.0282 49.0908 11.937H49.1772V12.0666L50.1707 14.86C50.2222 15.0459 50.2847 15.2286 50.3579 15.4071C50.4111 15.5557 50.5617 15.6461 50.7179 15.6231V15.7815H49.3356V15.6231C49.4652 15.6231 49.6667 15.6231 49.6667 15.4647C49.6502 15.336 49.6163 15.21 49.566 15.0904L49.35 14.4568H48.1405L47.9677 15.0184L48.0253 15.0184ZM48.8028 12.657L48.2989 14.1688H49.3068L48.8028 12.657Z" fill="white"/>
<path d="M50.8763 15.8103H50.142H49.3356V15.5943C49.4652 15.5943 49.6524 15.5943 49.6524 15.4647C49.6248 15.3369 49.5863 15.2116 49.5372 15.0904L49.3932 14.5432H48.2125L48.0541 15.0904C48.0001 15.2198 47.9615 15.3551 47.9389 15.4935C47.9389 15.6231 48.1405 15.6519 48.3133 15.6519H48.3997V15.8679H47.7517H47.1758V15.6519C47.3819 15.6538 47.5642 15.5186 47.6221 15.3207L48.4717 12.8729C48.5587 12.6525 48.6309 12.4264 48.6877 12.1962C48.8596 12.1395 49.024 12.0622 49.1772 11.9658C49.1826 12.0088 49.1826 12.0524 49.1772 12.0954L50.1563 14.8888C50.21 15.0712 50.2773 15.2493 50.3579 15.4215C50.405 15.56 50.5445 15.6449 50.6891 15.6231V15.8391L50.8763 15.8103ZM49.4364 15.8103H50.8763V15.7095C50.7137 15.7267 50.5599 15.6321 50.5019 15.4791C50.4238 15.301 50.3564 15.1183 50.3003 14.932L49.3212 12.1386V12.009C49.1741 12.1035 49.014 12.1763 48.8461 12.225C48.7988 12.4514 48.7313 12.673 48.6445 12.8873L47.7949 15.3351C47.7278 15.5512 47.5315 15.7014 47.3054 15.7095V15.8103H48.4717V15.7095C48.2989 15.7095 48.0541 15.7095 48.0541 15.4935C48.0744 15.35 48.1131 15.2096 48.1693 15.076L48.3421 14.5H49.5804L49.7964 15.1336C49.848 15.2589 49.8866 15.3891 49.9116 15.5223C49.9116 15.6951 49.6812 15.6951 49.5516 15.7095V15.8103H49.4364ZM48.3421 14.2408L48.8461 12.6858L49.35 14.2408H48.3421ZM48.3421 14.2408H49.278L48.8173 12.801L48.3421 14.2408Z" fill="white"/>
<path d="M51.1067 12.3258C50.7035 12.3258 50.6891 12.4122 50.6171 12.8153H50.4011C50.4011 12.6569 50.4011 12.5129 50.4011 12.3546C50.4154 12.2061 50.4154 12.0566 50.4011 11.9082H50.5307C50.5307 12.0666 50.7035 12.0522 50.8475 12.0522H53.6121C53.756 12.0522 53.8856 12.0522 53.9 11.8938H54.0296C54.0296 12.0378 54.0296 12.1818 54.0296 12.3258C54.0296 12.4698 54.0296 12.6137 54.0296 12.7577H53.8712C53.8712 12.5705 53.8712 12.2538 53.4681 12.2538H52.5897V15.1335C52.5897 15.5511 52.7769 15.5943 53.0361 15.5943H53.2809V15.7527H51.4378V15.5943H51.5386C51.841 15.5943 51.985 15.5943 51.985 15.1479V12.2682L51.1067 12.3258Z" fill="white"/>
<path d="M53.2809 15.8103H52.417H51.5098V15.5943H51.625C51.9274 15.5943 52.0426 15.5943 52.0426 15.1767V12.297H51.1931H52.1002V15.1767C52.1002 15.6087 51.9274 15.6519 51.625 15.6519V15.7671H52.5034H53.3529V15.6519H53.2665C53.0073 15.6519 52.8057 15.6519 52.8057 15.1623V12.2826H53.6985C54.0584 12.2826 54.1016 12.585 54.116 12.7865H54.2312C54.2312 12.6569 54.2312 12.513 54.2312 12.369C54.2242 12.2347 54.2242 12.1001 54.2312 11.9658L54.1448 11.9658C54.1448 12.1098 53.972 12.1242 53.8425 12.1242H50.9771C50.8475 12.1242 50.7035 12.1242 50.6603 11.9658H50.5739C50.5739 12.1098 50.5739 12.2538 50.5739 12.3978C50.5739 12.5418 50.5739 12.6857 50.5019 12.8297H50.6171C50.6171 12.4554 50.7467 12.3402 51.1355 12.3402C50.7467 12.3402 50.7467 12.4266 50.6603 12.8153H50.4011C50.4011 12.6713 50.4011 12.5274 50.4011 12.369C50.4146 12.2205 50.4146 12.0711 50.4011 11.9226H50.5739C50.5739 12.0522 50.7035 12.0522 50.8475 12.0666H53.6265C53.7704 12.0666 53.8712 12.0666 53.8856 11.9226H54.0296C54.0296 12.0522 54.0296 12.1962 54.0296 12.3402C54.0296 12.4842 54.0296 12.6281 54.0296 12.7721L53.8424 12.8441C53.8424 12.6425 53.8424 12.3402 53.4681 12.3402H52.6185V15.2199C52.6185 15.6231 52.7913 15.6519 53.0361 15.6519H53.2809V15.8679V15.8103Z" fill="white"/>
<path d="M54.3608 15.6229C54.5624 15.6229 54.764 15.6229 54.764 15.3205V12.5272C54.764 12.2392 54.5624 12.2104 54.3608 12.2104V12.052H55.1528H55.9879V12.2104H55.9159C55.7287 12.2104 55.5271 12.2104 55.5271 12.5272V15.3205C55.5271 15.5941 55.7287 15.6229 55.9159 15.6229H55.9879V15.7813H54.3608V15.6229Z" fill="white"/>
<path d="M55.9879 15.8101H55.1528H54.3608V15.5941H54.4472C54.6488 15.5941 54.8216 15.5941 54.8216 15.3205V12.5272C54.8216 12.2536 54.6488 12.2392 54.4472 12.2392H54.3608V12.0376H56.0167V12.2392H55.9159C55.7287 12.2392 55.5415 12.2392 55.5415 12.5272V15.3205C55.5415 15.5797 55.7287 15.5941 55.9159 15.5941H56.0167V15.8101L55.9879 15.8101ZM55.9879 15.8101V15.7093C55.8007 15.7093 55.5703 15.7093 55.5703 15.3781V12.5272C55.5703 12.2248 55.8007 12.196 55.9879 12.196V12.0808H54.404V12.196C54.6056 12.196 54.8216 12.196 54.836 12.5272V15.3205C54.836 15.6085 54.6056 15.6517 54.404 15.6517V15.7525H55.9879V15.8101Z" fill="white"/>
<path d="M58.1189 11.9802C58.6396 11.9319 59.1567 12.1036 59.5451 12.4537C59.9335 12.8038 60.1577 13.3004 60.1635 13.8232C60.1878 14.3675 59.9842 14.8974 59.6017 15.2854C59.2192 15.6733 58.6923 15.8844 58.1477 15.8679C57.6252 15.8959 57.1145 15.7056 56.7377 15.3425C56.3609 14.9793 56.1519 14.476 56.1607 13.9528C56.1528 13.4273 56.3581 12.921 56.7298 12.5493C57.1014 12.1776 57.6078 11.9723 58.1333 11.9802L58.1189 11.9802ZM58.2053 15.6231C59.242 15.6231 59.4148 14.716 59.4148 13.9384C59.4148 13.1609 58.9972 12.2106 58.1045 12.2106C57.2118 12.2106 56.895 13.0457 56.895 13.7656C56.895 14.716 57.3414 15.6231 58.2053 15.6231Z" fill="white"/>
<path d="M56.1607 13.9527C56.153 13.427 56.3554 12.92 56.7231 12.5442C57.0908 12.1685 57.5932 11.955 58.1189 11.9512C57.5882 11.9387 57.0761 12.147 56.7049 12.5264C56.3337 12.9059 56.1366 13.4224 56.1607 13.9527C56.1516 14.4709 56.3595 14.9693 56.7341 15.3275C57.1088 15.6857 57.616 15.8711 58.1333 15.8389C58.6715 15.8552 59.1923 15.6476 59.5717 15.2655C59.951 14.8834 60.1549 14.3611 60.1347 13.8231C60.1289 13.304 59.9062 12.8111 59.5205 12.4637C59.1348 12.1163 58.6213 11.9461 58.1045 11.9944C58.6278 11.9423 59.1494 12.1094 59.545 12.4559C59.9406 12.8025 60.175 13.2974 60.1923 13.8231C60.2169 14.3738 60.0098 14.9096 59.6214 15.3008C59.233 15.692 58.6986 15.9028 58.1477 15.8821C57.6238 15.906 57.1133 15.7124 56.737 15.347C56.3607 14.9816 56.1522 14.4771 56.1607 13.9527ZM56.9094 13.7655C56.9094 13.0455 57.183 12.1816 58.1477 12.1816C59.1124 12.1816 59.4724 13.1463 59.4724 13.9383C59.4724 14.7302 59.2852 15.6517 58.2341 15.6517C59.242 15.6517 59.4292 14.759 59.4292 13.9815C59.4292 13.2039 59.0404 12.2392 58.1189 12.2392C57.1974 12.2392 56.9238 13.0455 56.9238 13.7655C56.9238 14.7158 57.3558 15.6085 58.2053 15.6085C57.3126 15.6085 56.8806 14.6726 56.8806 13.7223L56.9094 13.7655Z" fill="white"/>
<path d="M63.7633 14.7302V12.7143C63.7795 12.5935 63.7456 12.4714 63.6695 12.3762C63.5933 12.281 63.4816 12.2211 63.3602 12.2104H63.245V12.052H63.9937H64.656V12.2104H64.5121C64.2961 12.2104 64.0369 12.2104 64.0369 12.9015V15.3205C64.0221 15.5026 64.0221 15.6856 64.0369 15.8677H63.8209L61.0851 12.8007V15.0038C61.0851 15.4645 61.1715 15.6229 61.5747 15.6229H61.6755V15.7813H60.2356V15.6229H60.322C60.682 15.6229 60.7972 15.3781 60.7972 14.9462V12.6999C60.7972 12.4296 60.578 12.2104 60.3076 12.2104H60.2356V12.052H60.8548H61.3299L63.7057 14.7302H63.7633Z" fill="white"/>
<path d="M64.0801 15.8821H63.8497L61.1427 12.8583V15.0038C61.1427 15.4645 61.1427 15.5941 61.6179 15.5941H61.7331V15.8101H61.042H60.3076V15.5941H60.4084C60.754 15.5941 60.8548 15.3637 60.8548 14.9462V12.6999C60.8548 12.4455 60.6485 12.2392 60.394 12.2392H60.3076V12.0376H61.4307L63.7777 14.687V12.7143C63.7945 12.594 63.758 12.4723 63.6778 12.3811C63.5976 12.2898 63.4817 12.238 63.3602 12.2392H63.2306V12.0376H64.6705V12.2392H64.5121C64.2961 12.2392 64.0657 12.2392 64.0657 12.9015V15.3205C64.0505 15.4978 64.0505 15.676 64.0657 15.8533L64.0801 15.8821ZM63.8785 15.8821H64.0513C64.0362 15.7096 64.0362 15.5362 64.0513 15.3637L64.0513 12.9015C64.0513 12.2536 64.3105 12.196 64.5409 12.196V12.0808H63.2162V12.196H63.3602C63.4979 12.1862 63.6329 12.2388 63.7277 12.3392C63.8225 12.4397 63.8673 12.5773 63.8497 12.7143L63.8497 14.7302L61.3875 12.0808H60.322V12.196C60.4581 12.1921 60.5901 12.2435 60.6877 12.3384C60.7854 12.4333 60.8404 12.5638 60.8404 12.6999V14.9462C60.8404 15.3781 60.7108 15.6517 60.3364 15.6517V15.7525H61.7763V15.6517H61.7043C61.2867 15.6517 61.1859 15.4645 61.1859 15.0038V12.7431L63.9649 15.8389L63.8785 15.8821Z" fill="white"/>
<path d="M65.4479 15.0184C65.4003 15.1548 65.3618 15.2943 65.3327 15.4359C65.3327 15.5943 65.5631 15.6231 65.7359 15.6231V15.7815H64.512V15.6231C64.7227 15.6157 64.9066 15.4778 64.9727 15.2775L65.8223 12.8297C65.9071 12.6147 65.9745 12.3932 66.0238 12.1674C66.1933 12.1047 66.3571 12.0276 66.5134 11.937H66.5854C66.58 11.98 66.58 12.0236 66.5854 12.0666L67.6797 14.86C67.6797 15.0472 67.8093 15.2487 67.8669 15.4071C67.9244 15.5521 68.0719 15.6406 68.2269 15.6231L68.2269 15.7815H66.7582V15.6231C66.8878 15.6231 67.0894 15.6231 67.0894 15.4647C67.0728 15.336 67.0389 15.21 66.9886 15.0904L66.787 14.4568H65.5631L65.3903 15.0184L65.4479 15.0184ZM66.2398 12.657L65.7359 14.1688H66.7438L66.2398 12.657Z" fill="white"/>
<path d="M68.2989 15.8103H67.5646H66.7582V15.5943C66.8878 15.5943 67.075 15.5943 67.075 15.4647C67.0538 15.3353 67.0151 15.2093 66.9598 15.0904L66.8158 14.5432H65.6351L65.4767 15.0904C65.4228 15.2198 65.3841 15.3551 65.3615 15.4935C65.3615 15.6231 65.5631 15.6519 65.7359 15.6519H65.8223V15.8679H65.1743H64.5984V15.6519C64.8008 15.6522 64.9781 15.5163 65.0304 15.3207L65.8943 12.8729C65.8943 12.6714 66.0527 12.4122 66.0959 12.1962C66.2678 12.1395 66.4322 12.0622 66.5854 11.9658V12.0954L67.6797 14.86C67.7517 15.0472 67.8093 15.2488 67.8813 15.4071C67.9378 15.5363 68.0728 15.6125 68.2125 15.5943L68.2125 15.8103H68.2989ZM66.859 15.8103H68.2989V15.7095C68.1363 15.7267 67.9825 15.632 67.9245 15.4791C67.9245 15.3207 67.7949 15.1192 67.7229 14.932L66.7438 12.1386V12.009C66.5967 12.1035 66.4366 12.1763 66.2687 12.225C66.2195 12.4493 66.157 12.6705 66.0815 12.8873L65.2175 15.3351C65.16 15.5517 64.9664 15.7042 64.7424 15.7095V15.8103H65.9231V15.7095C65.7503 15.7095 65.5055 15.7095 65.5055 15.4935C65.5258 15.35 65.5645 15.2096 65.6207 15.076L65.7935 14.5H67.0462L67.2478 15.1336C67.3063 15.2563 67.3452 15.3875 67.363 15.5223C67.363 15.6951 67.1326 15.6951 67.003 15.7095V15.8103H66.859ZM65.7647 14.2408L66.2399 12.6282L66.7438 14.1832L65.7647 14.2408ZM65.8367 14.2408H66.7582L66.2975 12.801L65.8367 14.2408Z" fill="white"/>
<path d="M69.6524 15.2629C69.6524 15.4789 69.7964 15.5365 69.9691 15.5653C70.2038 15.5866 70.44 15.5866 70.6747 15.5653C70.874 15.5394 71.0551 15.436 71.1786 15.2773C71.2539 15.1564 71.3121 15.0255 71.3514 14.8886L71.4954 14.8886C71.4954 15.1909 71.3658 15.4933 71.3082 15.7957H68.4285V15.6373C68.63 15.6373 68.8316 15.6373 68.8316 15.2773V12.5272C68.8316 12.2392 68.63 12.2104 68.4285 12.2104V12.052H69.278H70.0843V12.2104H69.9547C69.7532 12.2104 69.5948 12.2104 69.5948 12.4984V15.2629H69.6524Z" fill="white"/>
<path d="M71.3082 15.8101H69.8684H68.4285V15.5941H68.5293C68.7308 15.5941 68.9036 15.5941 68.9036 15.2629V12.5272C68.9036 12.2536 68.7308 12.2392 68.5293 12.2392H68.4285V12.0376H70.1275V12.2392H69.9835C69.7676 12.2392 69.638 12.2392 69.638 12.4984V15.2629C69.638 15.4645 69.7676 15.5077 69.9403 15.5365H70.2283H70.6315C70.8301 15.519 71.0126 15.42 71.1354 15.2629C71.2121 15.1496 71.2659 15.0225 71.2938 14.8886L71.4954 14.8886C71.4954 15.2053 71.3658 15.4933 71.2938 15.7957L71.3082 15.8101ZM71.3082 15.8101C71.3082 15.5221 71.4522 15.2485 71.5098 14.9606H71.3946C71.3598 15.0922 71.3065 15.2183 71.2362 15.3349C71.1009 15.4942 70.9109 15.5969 70.7035 15.6229L70.2859 15.6229H69.9979C69.8108 15.6229 69.6524 15.5365 69.6524 15.3061V12.4984C69.6524 12.2104 69.8395 12.196 70.0411 12.196H70.1419V12.0808H68.5149V12.196C68.702 12.196 68.9468 12.196 68.9468 12.5272V15.2629C68.9468 15.6085 68.702 15.6517 68.5149 15.6517V15.7525H71.2794L71.3082 15.8101Z" fill="white"/>
<path d="M71.4377 11.9082C71.7479 11.9082 71.9993 12.1596 71.9993 12.4697C71.9993 12.7798 71.7479 13.0313 71.4377 13.0313C71.1276 13.0313 70.8762 12.7798 70.8762 12.4697C70.8722 12.3196 70.93 12.1744 71.0362 12.0682C71.1424 11.962 71.2876 11.9041 71.4377 11.9082ZM71.4377 12.9305C71.6866 12.9227 71.8842 12.7187 71.8841 12.4697C71.8762 12.2252 71.673 12.0326 71.4284 12.0378C71.1839 12.0431 70.9891 12.2441 70.9916 12.4888C70.9942 12.7334 71.1931 12.9303 71.4377 12.9305ZM71.1641 12.7721V12.2681V12.1961H71.4521C71.5529 12.1961 71.6393 12.1961 71.6393 12.3401C71.637 12.4193 71.5851 12.4886 71.5097 12.5129L71.5961 12.6425C71.5961 12.6425 71.6825 12.7577 71.7257 12.7721H71.6105C71.6105 12.7721 71.5097 12.6569 71.4089 12.5129V12.6857C71.4089 12.6857 71.4089 12.6857 71.4809 12.6857L71.1641 12.7721ZM71.3513 12.4697C71.3513 12.4697 71.4665 12.4697 71.4665 12.3257C71.4715 12.2939 71.461 12.2616 71.4382 12.2388C71.4154 12.2161 71.3832 12.2055 71.3513 12.2105V12.4697Z" fill="white"/>
<path d="M13.7993 18.8628C19.0062 18.8914 23.3079 14.8058 23.5473 9.60431C23.5326 7.04965 22.4915 4.60816 20.6582 2.829C18.8249 1.04984 16.3533 0.0823996 13.7993 0.14428L9.47966 0.144279C6.95702 0.0686053 4.51404 1.03248 2.72266 2.81024C0.931285 4.58801 -0.0511963 7.02357 0.00523308 9.54672C0.0290358 14.7157 4.23868 18.8867 9.40767 18.8628H13.7993Z" fill="#0079BE"/>
<path d="M9.43645 0.921887C4.72077 0.921887 0.897949 4.74471 0.897949 9.46039C0.897949 14.1761 4.72077 17.9989 9.43645 17.9989C14.1521 17.9989 17.975 14.1761 17.975 9.46039C17.9788 7.19467 17.0804 5.02064 15.4783 3.41853C13.8762 1.81642 11.7022 0.918056 9.43645 0.921887ZM4.02249 9.46039C4.04573 7.24109 5.42113 5.26075 7.49261 4.464L7.49261 14.5432C5.38906 13.7384 4.00595 11.7126 4.02249 9.46039ZM11.3659 14.5432V4.464C13.4385 5.27757 14.8016 7.27706 14.8016 9.50359C14.8016 11.7301 13.4385 13.7296 11.3659 14.5432Z" fill="white"/>
<path d="M26.5424 4.16153C26.5424 3.26881 26.0816 3.3264 25.6353 3.3264V3.02403H28.515C29.4982 2.92793 30.4773 3.24344 31.2194 3.89551C31.9615 4.54759 32.4003 5.47795 32.4315 6.46535C32.4315 7.43007 31.8699 9.87787 28.3998 9.87787H26.9599H25.6353V9.66189C26.2256 9.66189 26.5136 9.58989 26.5424 8.91315V4.16153ZM27.5071 8.78356C27.5071 9.5467 28.0399 9.63309 28.5294 9.63309C29.3409 9.68203 30.1321 9.36757 30.6885 8.77494C31.245 8.18231 31.5091 7.37291 31.4092 6.56614C31.4918 5.72252 31.1985 4.88537 30.6075 4.27772C30.0165 3.67007 29.1878 3.35366 28.3422 3.4128C28.0881 3.39841 27.8333 3.39841 27.5791 3.4128L27.5791 8.78356H27.5071Z" fill="white"/>
<path d="M32.7625 9.66201H32.9496C33.2232 9.66201 33.4248 9.66201 33.4248 9.34524V6.68145C33.4248 6.24949 33.2808 6.19189 32.9064 5.99031V5.90392C33.2632 5.80927 33.6142 5.69388 33.9576 5.55834C34.0142 5.54371 34.0737 5.54371 34.1303 5.55835C34.1303 5.55835 34.2023 5.55834 34.2023 5.70233V9.34524C34.2023 9.66201 34.4183 9.66201 34.6919 9.66201H34.8647V9.92119H33.828H32.7625V9.66201ZM33.8136 3.90248C33.5488 3.89469 33.3383 3.67777 33.3384 3.41292C33.3858 3.18778 33.5835 3.02599 33.8136 3.02415C33.9382 3.02025 34.0592 3.06707 34.1487 3.15391C34.2383 3.24074 34.2888 3.36018 34.2887 3.48491C34.2601 3.72718 34.0575 3.91139 33.8136 3.91688L33.8136 3.90248Z" fill="white"/>
<path d="M35.8008 6.73901C35.8008 6.37903 35.6856 6.27824 35.2248 6.09106V5.90387C35.6669 5.77449 36.0998 5.61575 36.5207 5.42871C36.5207 5.42871 36.5207 5.42871 36.5207 5.5295V6.16305C36.9908 5.73797 37.588 5.47985 38.2198 5.42871C39.0549 5.42871 39.3429 6.04786 39.3429 6.86859V9.34519C39.3429 9.66197 39.5588 9.66197 39.8324 9.66197H40.0196V9.92114H38.9685H37.9174V9.66197H38.0902C38.3638 9.66197 38.5653 9.66197 38.5653 9.34519V6.7966C38.5653 6.23505 38.2198 5.96147 37.6582 5.96147C37.2468 6.02768 36.857 6.19053 36.5207 6.43663L36.5207 9.31639C36.5207 9.63317 36.7367 9.63317 37.0103 9.63317H37.183V9.89235H36.1463H35.0952V9.66197H35.268C35.5416 9.66197 35.7432 9.66197 35.7432 9.34519V6.73901H35.8008Z" fill="white"/>
<path d="M40.8115 7.21412C40.7954 7.40096 40.7954 7.58883 40.8115 7.77567C40.7751 8.63081 41.4019 9.3704 42.2514 9.47473C42.7749 9.44214 43.2607 9.19141 43.5905 8.78359L43.7201 8.92758C43.3359 9.5744 42.6567 9.98943 41.9059 10.0363C41.3745 10.0106 40.876 9.77129 40.5235 9.37276C40.1711 8.97422 39.9945 8.45022 40.034 7.91966C39.9486 7.32254 40.1135 6.71665 40.4896 6.2451C40.8658 5.77355 41.4199 5.47815 42.021 5.42866C42.4471 5.40512 42.8644 5.55605 43.1768 5.84671C43.4891 6.13737 43.6697 6.5427 43.6769 6.96934C43.6835 7.03156 43.6835 7.0943 43.6769 7.15652L43.5905 7.15652L40.8115 7.21412ZM42.5538 6.89734C42.7986 6.89734 42.8274 6.76775 42.8274 6.65256C42.8479 6.41636 42.767 6.18258 42.6049 6.00953C42.4429 5.83647 42.2149 5.74046 41.9778 5.74544C41.3731 5.74544 40.9699 6.1918 40.8403 6.89734H42.5538Z" fill="white"/>
<path d="M43.8928 9.66194H44.1664C44.44 9.66194 44.6271 9.66194 44.6271 9.34516V6.58059C44.6271 6.27821 44.2672 6.22062 44.1232 6.13422V5.99023C44.8431 5.68786 45.2319 5.42868 45.3183 5.42868C45.4047 5.42868 45.4047 5.42868 45.4047 5.55827V6.451C45.6495 6.06223 46.0526 5.42868 46.6574 5.42868C46.9542 5.42046 47.2034 5.6505 47.2189 5.94704C47.2268 6.07551 47.1822 6.20166 47.0953 6.29665C47.0085 6.39164 46.8868 6.44734 46.7582 6.451C46.4558 6.451 46.4558 6.22062 46.1102 6.22062C45.7052 6.27689 45.4005 6.61816 45.3903 7.02695V9.34516C45.3903 9.66193 45.5919 9.66193 45.8654 9.66193H46.4126V9.92111H44.9727H43.8064V9.66194H43.8928Z" fill="white"/>
<path d="M47.6799 8.55313C47.7304 9.20764 48.2623 9.721 48.9182 9.74824C49.4941 9.74824 49.7101 9.40266 49.7101 9.05709C49.7101 7.89079 47.5647 8.26516 47.5647 6.69568C47.5855 6.31989 47.7619 5.96975 48.0515 5.72934C48.3411 5.48893 48.7177 5.37996 49.091 5.42859C49.4781 5.43554 49.8581 5.53423 50.1997 5.71656V6.72448H49.9837C49.9605 6.17681 49.5095 5.74487 48.9614 5.74536C48.7732 5.72535 48.5851 5.78333 48.4409 5.90577C48.2967 6.02822 48.209 6.20443 48.1982 6.39331C48.1982 7.54522 50.4733 7.18524 50.4733 8.72592C50.4733 9.37387 49.9549 10.065 48.7886 10.065C48.37 10.0486 47.9609 9.93522 47.5935 9.73384L47.5215 8.59633H47.7087L47.6799 8.55313Z" fill="white"/>
<path d="M59.3428 4.8384H59.0404C58.9759 4.34939 58.7196 3.9061 58.3279 3.60627C57.9363 3.30645 57.4415 3.17472 56.9526 3.24013C56.1559 3.2391 55.3967 3.57825 54.866 4.1723C54.3352 4.76636 54.0833 5.55878 54.1736 6.35028C54.0641 8.0729 55.3361 9.57385 57.0534 9.7484C58.0444 9.75797 58.8886 9.03081 59.026 8.04934L59.2564 8.04934L59.026 9.48922C58.3502 9.81102 57.6144 9.98761 56.8662 10.0076C55.8992 10.0364 54.9637 9.66191 54.2837 8.97374C53.6037 8.28557 53.2405 7.34568 53.2809 6.37908C53.359 4.40195 55.0182 2.8585 56.9958 2.92336C57.7916 2.96842 58.5747 3.14352 59.314 3.44172L59.4004 4.8816L59.3428 4.8384Z" fill="white"/>
<path d="M59.7029 9.66183H59.8901C60.1636 9.66183 60.3652 9.66183 60.3652 9.34506V3.8735C60.3652 3.23995 60.2068 3.21115 59.8469 3.11036V3.02397C60.1926 2.90967 60.5295 2.7701 60.8548 2.6064C60.9223 2.56005 60.9947 2.52141 61.0708 2.49121C61.0708 2.49121 61.1428 2.49121 61.1428 2.6352V9.34505C61.1428 9.66183 61.3588 9.66183 61.6323 9.66183H61.8051V9.92101H60.7684H59.7029V9.66183Z" fill="white"/>
<path d="M65.995 9.37381C65.995 9.56099 66.1102 9.56099 66.2686 9.56099H66.6717V9.76257C66.1853 9.82947 65.7041 9.93051 65.2319 10.0649V9.24422C64.7774 9.72229 64.1617 10.0147 63.504 10.0649C63.1991 10.0752 62.9048 9.95241 62.6975 9.72856C62.4903 9.50471 62.3905 9.20186 62.4241 8.89864V6.37885C62.4241 6.13407 62.4241 5.88929 61.8337 5.83169V5.64451C62.1793 5.64451 62.9712 5.64451 63.1008 5.64451C63.2304 5.64451 63.2016 5.64451 63.2016 5.91809V8.39469C63.2016 8.69706 63.2016 9.53219 64.0512 9.53219C64.4998 9.46 64.9163 9.25427 65.2463 8.94184L65.2463 6.29246C65.2463 6.10527 64.7711 5.99008 64.4255 5.88929V5.7165C65.3039 5.7165 65.8654 5.58691 65.9518 5.58691C66.0382 5.58691 65.9518 5.58691 65.9518 5.7597V9.37381H65.995Z" fill="white"/>
<path d="M67.9534 6.13409C68.3418 5.74574 68.8483 5.49755 69.3932 5.42854C69.9159 5.44255 70.4098 5.67128 70.7585 6.06088C71.1072 6.45048 71.28 6.96653 71.2363 7.48758C71.2934 8.84505 70.2462 9.99507 68.8893 10.065C68.4158 10.0688 67.9494 9.94977 67.5358 9.7194L67.2334 9.94978L67.0318 9.83459C67.1191 9.25795 67.1624 8.67552 67.1614 8.09233V3.87347C67.1614 3.23992 67.0174 3.21112 66.6431 3.11033V3.02394C67.0015 2.88944 67.3482 2.7257 67.6798 2.53438C67.7455 2.48521 67.8183 2.44637 67.8958 2.41919C67.8958 2.41919 67.8958 2.41919 67.8958 2.56318V6.13409H67.9534ZM67.9534 8.81227C67.9759 9.35693 68.4163 9.79111 68.9613 9.80579C70.0124 9.80579 70.4012 8.78347 70.4012 7.90514C70.4848 6.94906 69.8318 6.08461 68.8893 5.90371C68.5329 5.9426 68.2015 6.10572 67.9534 6.36447V8.78347V8.81227Z" fill="white"/>
<path d="M25.6353 15.6229H25.7072C25.8944 15.6229 26.096 15.6229 26.096 15.3205V12.5272C26.096 12.2392 25.8944 12.2104 25.7072 12.2104H25.6353V12.052H26.4272H27.2623V12.2104H27.1903C26.9887 12.2104 26.7872 12.2104 26.7872 12.5272V15.3205C26.7872 15.5941 26.9887 15.6229 27.1903 15.6229H27.2623V15.7813H25.6353V15.6229Z" fill="white"/>
<path d="M27.2623 15.8101H26.4128H25.6353V15.5941H25.736C25.9232 15.5941 26.1104 15.5941 26.1104 15.3205V12.5272C26.1104 12.2536 25.9232 12.2392 25.736 12.2392H25.6353V12.0376H27.3055V12.2392H27.2191C27.0175 12.2392 26.8448 12.2392 26.8448 12.5272V15.3205C26.8448 15.5797 27.0175 15.5941 27.2191 15.5941H27.3055V15.8101L27.2623 15.8101ZM27.2623 15.8101V15.6949C27.0607 15.6949 26.8448 15.6949 26.8448 15.3637V12.5272C26.8448 12.2248 27.0607 12.196 27.2623 12.196V12.0808H25.6785V12.196C25.8656 12.196 26.096 12.196 26.096 12.5272V15.3205C26.096 15.6085 25.8656 15.6517 25.6785 15.6517V15.7669H26.4416H27.2623V15.8101Z" fill="white"/>
<path d="M30.9196 14.7302V12.7143C30.9367 12.5838 30.8953 12.4524 30.8064 12.3552C30.7176 12.258 30.5904 12.205 30.4588 12.2104H30.3436V12.052H31.0924H31.7403V12.2104H31.6827C31.4523 12.2104 31.2076 12.2104 31.2076 12.9015V15.3205C31.1928 15.5026 31.1928 15.6856 31.2076 15.8677L31.006 15.8677L28.2846 12.8007V15.0038C28.2846 15.4645 28.371 15.6229 28.7885 15.6229H28.8749V15.7813H27.4351V15.6229H27.5071C27.8814 15.6229 27.9822 15.3781 27.9822 14.9462V12.6999C27.9861 12.5715 27.9378 12.4469 27.8482 12.3546C27.7587 12.2624 27.6356 12.2103 27.5071 12.2104L27.4351 12.2104V12.052H28.0398H28.515L30.8908 14.7302H30.9196Z" fill="white"/>
<path d="M31.2364 15.8821H31.0204L28.299 12.8583V15.0038C28.299 15.4645 28.3854 15.5941 28.7886 15.5941H28.9038V15.8101H28.2126H27.4927V15.5941H27.5935C27.9534 15.5941 28.0542 15.3637 28.0542 14.9462V12.6999C28.0542 12.4455 27.8479 12.2392 27.5935 12.2392H27.4927V12.0376H28.6302L30.9772 14.687V12.7143C30.9772 12.2968 30.6892 12.2392 30.5308 12.2392H30.3868V12.0376H31.8267V12.2392H31.6827C31.4523 12.2392 31.2364 12.2392 31.222 12.9015V15.3205C31.222 15.5077 31.222 15.6949 31.222 15.8533L31.2364 15.8821ZM31.0348 15.8821H31.2076C31.1924 15.7096 31.1924 15.5362 31.2076 15.3637V12.9015C31.2076 12.2536 31.4811 12.196 31.7115 12.196V12.0808H30.3436V12.196H30.4444C30.5822 12.1862 30.7171 12.2388 30.812 12.3392C30.9068 12.4397 30.9516 12.5773 30.934 12.7143L30.934 14.7302L28.5438 12.0808H27.4783V12.196C27.7566 12.196 27.9822 12.4216 27.9822 12.6999V14.9462C27.9822 15.3781 27.867 15.6517 27.4783 15.6517V15.7669H28.1838H28.8462V15.6517C28.4286 15.6517 28.3134 15.4645 28.3134 15.0038V12.7431L31.0924 15.8389L31.0348 15.8821Z" fill="white"/>
<path d="M32.561 12.3258C32.1579 12.3258 32.1435 12.4122 32.0571 12.8153H31.8987C31.8987 12.6569 31.8987 12.5129 31.9707 12.3546C32.0427 12.1962 31.9707 12.0522 31.9707 11.9082H32.1003C32.1003 12.0666 32.2731 12.0522 32.417 12.0522H35.1672C35.3112 12.0522 35.4552 12.0522 35.4552 11.8938H35.5848C35.5848 12.0378 35.5848 12.1818 35.5848 12.3258C35.5848 12.4698 35.5848 12.6137 35.5848 12.7577H35.4264C35.4264 12.5705 35.4264 12.2538 35.0376 12.2538H34.1593V15.1335C34.1593 15.5511 34.3465 15.5943 34.6057 15.5943H34.7064V15.7527H32.8922V15.5943H32.993C33.281 15.5943 33.4394 15.5943 33.4394 15.1479V12.2682L32.561 12.3258Z" fill="white"/>
<path d="M34.6633 15.8103H33.785H32.8922V15.5943H33.0218C33.3098 15.5943 33.4394 15.5943 33.4394 15.1767V12.297H32.5898H33.4826V15.1767C33.4826 15.6087 33.3098 15.6519 33.0218 15.6519H32.9354V15.7527H34.6633V15.6519H34.5625C34.3033 15.6519 34.0873 15.6519 34.0873 15.1623V12.2826H34.9944C35.3544 12.2826 35.3976 12.585 35.412 12.7865H35.5272C35.5272 12.6569 35.5272 12.513 35.5272 12.369V11.9658H35.4552C35.4552 12.1098 35.2824 12.1242 35.1384 12.1242H32.4171C32.2875 12.1242 32.1579 12.1242 32.1147 11.9658H32.0139C32.0282 12.1094 32.0282 12.2541 32.0139 12.3978C32.0139 12.5418 32.0139 12.6857 32.0139 12.8297H32.1291C32.2011 12.4554 32.2443 12.3402 32.6474 12.3402C32.2443 12.3402 32.2587 12.4266 32.1723 12.8153H31.9563C31.9563 12.6713 31.9563 12.5274 31.9563 12.369C31.9701 12.2205 31.9701 12.0711 31.9563 11.9226H32.1291C32.1291 12.0522 32.2731 12.0666 32.4027 12.0666H35.1816C35.34 12.0666 35.4408 12.0666 35.4552 11.9226H35.5992C35.5913 12.0617 35.5913 12.2011 35.5992 12.3402C35.5992 12.4842 35.5992 12.6281 35.5992 12.7721L35.412 12.8441C35.412 12.6425 35.412 12.3402 35.0377 12.3402H34.1881V15.2199C34.1881 15.6231 34.3465 15.6519 34.6057 15.6519H34.7353V15.8679L34.6633 15.8103Z" fill="white"/>
<path d="M35.7864 15.6229C35.9879 15.6229 36.1895 15.6229 36.1895 15.3205V12.5272C36.1895 12.2392 35.9879 12.2104 35.7864 12.2104V12.052H37.1111H38.4789C38.4789 12.2824 38.4789 12.6424 38.4789 12.8727H38.3206C38.3206 12.5272 38.2342 12.2536 37.6726 12.2536H36.9239V13.6935H37.5574C37.8742 13.6935 37.9462 13.5063 37.9894 13.2183H38.1478C38.1478 13.4343 38.1478 13.6359 38.1478 13.8519C38.1478 14.0678 38.1478 14.255 38.1478 14.4566H37.9894C37.9894 14.1398 37.9894 13.9238 37.5718 13.9238H36.9239V15.1765C36.9239 15.5221 37.2406 15.5221 37.5718 15.5221C38.2198 15.5221 38.4933 15.5221 38.6661 14.8742H38.8101C38.7381 15.1621 38.6805 15.4357 38.6229 15.7237H35.7432V15.5653L35.7864 15.6229Z" fill="white"/>
<path d="M38.6373 15.8101H37.1974H35.7576V15.5941H35.8584C36.0599 15.5941 36.2327 15.5941 36.2327 15.3205V12.5272C36.2327 12.2536 36.0599 12.2392 35.8584 12.2392H35.7576V12.0376H38.5077C38.5077 12.124 38.5077 12.2248 38.5077 12.3256C38.5077 12.4264 38.5077 12.6999 38.5077 12.8583H38.3206C38.3206 12.5128 38.2486 12.268 37.7014 12.2536H36.9815V13.6071H37.5862C37.903 13.6071 37.9462 13.4487 37.9894 13.1607H38.191C38.191 13.3767 38.191 13.5783 38.191 13.7943C38.191 14.0102 38.191 14.1974 38.191 14.399H38.0038C38.0038 14.0822 38.0038 13.895 37.615 13.895H36.9959V15.1189C36.9959 15.4357 37.2694 15.4357 37.615 15.4357C38.263 15.4357 38.5221 15.4357 38.6805 14.8022H38.8533C38.7813 15.0757 38.7093 15.3637 38.6661 15.6373L38.6373 15.8101ZM38.6373 15.8101C38.6373 15.5509 38.7381 15.2773 38.8101 15.0038H38.7093C38.5509 15.6085 38.2342 15.6661 37.6006 15.6517C37.2694 15.6517 36.9383 15.6517 36.9383 15.2917V13.9382H37.6006C37.9606 13.9382 38.0038 14.1542 38.0326 14.4566H38.1478C38.1478 14.2694 38.1478 14.0678 38.1478 13.8806C38.1478 13.6935 38.1478 13.4775 38.1478 13.2759H38.0182C38.0182 13.5495 37.903 13.7511 37.5718 13.7367H36.9239V12.2968H37.687C38.2342 12.2968 38.335 12.5848 38.3494 12.9159H38.4645C38.4645 12.7575 38.4645 12.5704 38.4645 12.3976C38.4568 12.3114 38.4568 12.2246 38.4645 12.1384H35.8152V12.2536C36.0023 12.2536 36.2327 12.2536 36.2327 12.5848V15.3781C36.2327 15.6661 36.0023 15.7093 35.8152 15.7093V15.8101H38.6229L38.6373 15.8101Z" fill="white"/>
<path d="M39.5445 12.628C39.5445 12.2392 39.3285 12.2104 39.1701 12.2104H39.0693V12.052H39.8901H40.754C41.4307 12.052 42.0211 12.2392 42.0211 13.0023C42.0062 13.4409 41.7092 13.8194 41.2868 13.9382L42.1939 15.3061C42.2994 15.4951 42.496 15.6152 42.7122 15.6229V15.7813H41.7619C41.3528 15.2317 40.9823 14.6544 40.6532 14.0534L40.2932 14.0534V15.1909C40.2932 15.6085 40.4948 15.6229 40.7396 15.6229H40.8404V15.7813H39.0693V15.6229H39.1701C39.3573 15.6229 39.5445 15.5365 39.5445 15.3349V12.628ZM40.2212 13.8663H40.4948C41.0276 13.8663 41.3156 13.6647 41.3156 13.0311C41.3332 12.82 41.257 12.6118 41.1072 12.4619C40.9574 12.3121 40.7492 12.2359 40.538 12.2536L40.2212 12.2536V13.8663Z" fill="white"/>
<path d="M42.7122 15.8101H42.1939C42.0211 15.8101 41.8627 15.8101 41.6755 15.8101C41.2647 15.2667 40.8941 14.6941 40.5668 14.0966H40.322V15.2053C40.322 15.6085 40.4948 15.6085 40.7396 15.6085H40.8548V15.8245H39.9477H39.1701V15.6085H39.2997C39.4869 15.6085 39.6453 15.5221 39.6453 15.3493V12.6279C39.6453 12.2392 39.4581 12.2392 39.2997 12.2392H39.1701V12.0376H40.754C41.4308 12.0376 42.0499 12.2248 42.0499 13.0023C42.0322 13.4431 41.7376 13.8243 41.3156 13.9526L42.2227 15.2917C42.3154 15.4771 42.505 15.5942 42.7122 15.5941V15.7813V15.8101ZM40.2213 14.0246H40.5956C40.9251 14.6222 41.2905 15.1992 41.6899 15.7525L42.1939 15.7525H42.6979V15.6373C42.4807 15.6325 42.2829 15.5115 42.1795 15.3205L41.2436 13.8806C41.6665 13.7716 41.966 13.3957 41.9779 12.9591C41.9779 12.2248 41.402 12.052 40.7252 12.052H39.0981V12.1672H39.1701C39.3285 12.1672 39.5733 12.1672 39.5733 12.5992V15.3061C39.5733 15.5221 39.3717 15.6229 39.1701 15.6229H39.0981V15.7237H40.7396V15.6229H40.6676C40.4228 15.6229 40.2069 15.6229 40.2069 15.1621V14.0246H40.2213ZM40.2213 13.8806V12.2536C40.3265 12.2419 40.4328 12.2419 40.538 12.2536C40.7628 12.2385 40.9824 12.3253 41.136 12.4901C41.2895 12.6548 41.3608 12.88 41.33 13.1031C41.33 13.7367 41.0276 13.9526 40.4948 13.9526L40.2213 13.8806ZM40.4948 13.8806C41.0132 13.8806 41.2868 13.6935 41.2868 13.0743C41.304 12.8697 41.2311 12.6677 41.0873 12.5211C40.9435 12.3745 40.743 12.2979 40.538 12.3112C40.4424 12.2993 40.3457 12.2993 40.25 12.3112V13.8375L40.4948 13.8806Z" fill="white"/>
<path d="M46.3407 14.7302V12.7143C46.3584 12.5812 46.3152 12.4471 46.223 12.3493C46.1308 12.2516 45.9995 12.2006 45.8656 12.2104H45.7504V12.052H46.4991H47.1614V12.2104H47.0895C46.8735 12.2104 46.6143 12.2104 46.6143 12.9015V15.3205C46.6143 15.5077 46.6143 15.6949 46.6143 15.8677H46.4127L43.6913 12.8007V15.0038C43.6913 15.4645 43.7921 15.6229 44.1953 15.6229H44.2961V15.7813H42.8562V15.6229H42.9282C43.3026 15.6229 43.4178 15.3781 43.4178 14.9462V12.6999C43.4178 12.4296 43.1986 12.2104 42.9282 12.2104H42.8562V12.052H43.4754H43.9505L46.3263 14.7302H46.3407Z" fill="white"/>
<path d="M46.6431 15.8821H46.4271L43.7201 12.8583V15.0038C43.7201 15.4645 43.7921 15.5941 44.1953 15.5941H44.3105V15.8101H43.6338H42.8994V15.5941H42.9858C43.3458 15.5941 43.4466 15.3637 43.4466 14.9462V12.6999C43.4466 12.4455 43.2403 12.2392 42.9858 12.2392H42.8994V12.0376H44.0225L46.3695 14.687V12.7143C46.3874 12.5888 46.3473 12.462 46.2605 12.3695C46.1737 12.2771 46.0496 12.2292 45.9232 12.2392H45.7936V12.0376H47.2335V12.2392H47.0895C46.8735 12.2392 46.6431 12.2392 46.6431 12.9015V15.3205C46.6279 15.4978 46.6279 15.676 46.6431 15.8533V15.8821ZM46.4415 15.8821H46.6143C46.6143 15.7237 46.6143 15.5509 46.6143 15.3637V12.9015C46.6143 12.2536 46.8879 12.196 47.1183 12.196V12.0808H45.7936V12.196H45.88C46.0178 12.1862 46.1527 12.2388 46.2475 12.3392C46.3424 12.4397 46.3871 12.5773 46.3695 12.7143L46.3695 14.7302L43.9649 12.0808H42.8994V12.196C43.0343 12.192 43.1648 12.2438 43.2602 12.3392C43.3556 12.4346 43.4074 12.5651 43.4034 12.6999L43.4034 14.9462C43.4034 15.3781 43.2882 15.6517 42.8994 15.6517V15.7525H44.2673V15.6517C43.8497 15.6517 43.749 15.4645 43.749 15.0038V12.7431L46.5135 15.8389L46.4415 15.8821Z" fill="white"/>
<path d="M48.0253 15.0184C47.9777 15.1548 47.9392 15.2943 47.9101 15.4359C47.9101 15.5943 48.1405 15.6231 48.3133 15.6231V15.7815H47.0894V15.6231C47.3055 15.6217 47.4966 15.4827 47.5645 15.2775L48.414 12.8297C48.4924 12.6125 48.5597 12.3914 48.6156 12.1674C48.7807 12.1053 48.9398 12.0282 49.0908 11.937H49.1772V12.0666L50.1707 14.86C50.2222 15.0459 50.2847 15.2286 50.3579 15.4071C50.4111 15.5557 50.5617 15.6461 50.7179 15.6231V15.7815H49.3356V15.6231C49.4652 15.6231 49.6667 15.6231 49.6667 15.4647C49.6502 15.336 49.6163 15.21 49.566 15.0904L49.35 14.4568H48.1405L47.9677 15.0184L48.0253 15.0184ZM48.8028 12.657L48.2989 14.1688H49.3068L48.8028 12.657Z" fill="white"/>
<path d="M50.8763 15.8103H50.142H49.3356V15.5943C49.4652 15.5943 49.6524 15.5943 49.6524 15.4647C49.6248 15.3369 49.5863 15.2116 49.5372 15.0904L49.3932 14.5432H48.2125L48.0541 15.0904C48.0001 15.2198 47.9615 15.3551 47.9389 15.4935C47.9389 15.6231 48.1405 15.6519 48.3133 15.6519H48.3997V15.8679H47.7517H47.1758V15.6519C47.3819 15.6538 47.5642 15.5186 47.6221 15.3207L48.4717 12.8729C48.5587 12.6525 48.6309 12.4264 48.6877 12.1962C48.8596 12.1395 49.024 12.0622 49.1772 11.9658C49.1826 12.0088 49.1826 12.0524 49.1772 12.0954L50.1563 14.8888C50.21 15.0712 50.2773 15.2493 50.3579 15.4215C50.405 15.56 50.5445 15.6449 50.6891 15.6231V15.8391L50.8763 15.8103ZM49.4364 15.8103H50.8763V15.7095C50.7137 15.7267 50.5599 15.6321 50.5019 15.4791C50.4238 15.301 50.3564 15.1183 50.3003 14.932L49.3212 12.1386V12.009C49.1741 12.1035 49.014 12.1763 48.8461 12.225C48.7988 12.4514 48.7313 12.673 48.6445 12.8873L47.7949 15.3351C47.7278 15.5512 47.5315 15.7014 47.3054 15.7095V15.8103H48.4717V15.7095C48.2989 15.7095 48.0541 15.7095 48.0541 15.4935C48.0744 15.35 48.1131 15.2096 48.1693 15.076L48.3421 14.5H49.5804L49.7964 15.1336C49.848 15.2589 49.8866 15.3891 49.9116 15.5223C49.9116 15.6951 49.6812 15.6951 49.5516 15.7095V15.8103H49.4364ZM48.3421 14.2408L48.8461 12.6858L49.35 14.2408H48.3421ZM48.3421 14.2408H49.278L48.8173 12.801L48.3421 14.2408Z" fill="white"/>
<path d="M51.1067 12.3258C50.7035 12.3258 50.6891 12.4122 50.6171 12.8153H50.4011C50.4011 12.6569 50.4011 12.5129 50.4011 12.3546C50.4154 12.2061 50.4154 12.0566 50.4011 11.9082H50.5307C50.5307 12.0666 50.7035 12.0522 50.8475 12.0522H53.6121C53.756 12.0522 53.8856 12.0522 53.9 11.8938H54.0296C54.0296 12.0378 54.0296 12.1818 54.0296 12.3258C54.0296 12.4698 54.0296 12.6137 54.0296 12.7577H53.8712C53.8712 12.5705 53.8712 12.2538 53.4681 12.2538H52.5897V15.1335C52.5897 15.5511 52.7769 15.5943 53.0361 15.5943H53.2809V15.7527H51.4378V15.5943H51.5386C51.841 15.5943 51.985 15.5943 51.985 15.1479V12.2682L51.1067 12.3258Z" fill="white"/>
<path d="M53.2809 15.8103H52.417H51.5098V15.5943H51.625C51.9274 15.5943 52.0426 15.5943 52.0426 15.1767V12.297H51.1931H52.1002V15.1767C52.1002 15.6087 51.9274 15.6519 51.625 15.6519V15.7671H52.5034H53.3529V15.6519H53.2665C53.0073 15.6519 52.8057 15.6519 52.8057 15.1623V12.2826H53.6985C54.0584 12.2826 54.1016 12.585 54.116 12.7865H54.2312C54.2312 12.6569 54.2312 12.513 54.2312 12.369C54.2242 12.2347 54.2242 12.1001 54.2312 11.9658L54.1448 11.9658C54.1448 12.1098 53.972 12.1242 53.8425 12.1242H50.9771C50.8475 12.1242 50.7035 12.1242 50.6603 11.9658H50.5739C50.5739 12.1098 50.5739 12.2538 50.5739 12.3978C50.5739 12.5418 50.5739 12.6857 50.5019 12.8297H50.6171C50.6171 12.4554 50.7467 12.3402 51.1355 12.3402C50.7467 12.3402 50.7467 12.4266 50.6603 12.8153H50.4011C50.4011 12.6713 50.4011 12.5274 50.4011 12.369C50.4146 12.2205 50.4146 12.0711 50.4011 11.9226H50.5739C50.5739 12.0522 50.7035 12.0522 50.8475 12.0666H53.6265C53.7704 12.0666 53.8712 12.0666 53.8856 11.9226H54.0296C54.0296 12.0522 54.0296 12.1962 54.0296 12.3402C54.0296 12.4842 54.0296 12.6281 54.0296 12.7721L53.8424 12.8441C53.8424 12.6425 53.8424 12.3402 53.4681 12.3402H52.6185V15.2199C52.6185 15.6231 52.7913 15.6519 53.0361 15.6519H53.2809V15.8679V15.8103Z" fill="white"/>
<path d="M54.3608 15.6229C54.5624 15.6229 54.764 15.6229 54.764 15.3205V12.5272C54.764 12.2392 54.5624 12.2104 54.3608 12.2104V12.052H55.1528H55.9879V12.2104H55.9159C55.7287 12.2104 55.5271 12.2104 55.5271 12.5272V15.3205C55.5271 15.5941 55.7287 15.6229 55.9159 15.6229H55.9879V15.7813H54.3608V15.6229Z" fill="white"/>
<path d="M55.9879 15.8101H55.1528H54.3608V15.5941H54.4472C54.6488 15.5941 54.8216 15.5941 54.8216 15.3205V12.5272C54.8216 12.2536 54.6488 12.2392 54.4472 12.2392H54.3608V12.0376H56.0167V12.2392H55.9159C55.7287 12.2392 55.5415 12.2392 55.5415 12.5272V15.3205C55.5415 15.5797 55.7287 15.5941 55.9159 15.5941H56.0167V15.8101L55.9879 15.8101ZM55.9879 15.8101V15.7093C55.8007 15.7093 55.5703 15.7093 55.5703 15.3781V12.5272C55.5703 12.2248 55.8007 12.196 55.9879 12.196V12.0808H54.404V12.196C54.6056 12.196 54.8216 12.196 54.836 12.5272V15.3205C54.836 15.6085 54.6056 15.6517 54.404 15.6517V15.7525H55.9879V15.8101Z" fill="white"/>
<path d="M58.1189 11.9802C58.6396 11.9319 59.1567 12.1036 59.5451 12.4537C59.9335 12.8038 60.1577 13.3004 60.1635 13.8232C60.1878 14.3675 59.9842 14.8974 59.6017 15.2854C59.2192 15.6733 58.6923 15.8844 58.1477 15.8679C57.6252 15.8959 57.1145 15.7056 56.7377 15.3425C56.3609 14.9793 56.1519 14.476 56.1607 13.9528C56.1528 13.4273 56.3581 12.921 56.7298 12.5493C57.1014 12.1776 57.6078 11.9723 58.1333 11.9802L58.1189 11.9802ZM58.2053 15.6231C59.242 15.6231 59.4148 14.716 59.4148 13.9384C59.4148 13.1609 58.9972 12.2106 58.1045 12.2106C57.2118 12.2106 56.895 13.0457 56.895 13.7656C56.895 14.716 57.3414 15.6231 58.2053 15.6231Z" fill="white"/>
<path d="M56.1607 13.9527C56.153 13.427 56.3554 12.92 56.7231 12.5442C57.0908 12.1685 57.5932 11.955 58.1189 11.9512C57.5882 11.9387 57.0761 12.147 56.7049 12.5264C56.3337 12.9059 56.1366 13.4224 56.1607 13.9527C56.1516 14.4709 56.3595 14.9693 56.7341 15.3275C57.1088 15.6857 57.616 15.8711 58.1333 15.8389C58.6715 15.8552 59.1923 15.6476 59.5717 15.2655C59.951 14.8834 60.1549 14.3611 60.1347 13.8231C60.1289 13.304 59.9062 12.8111 59.5205 12.4637C59.1348 12.1163 58.6213 11.9461 58.1045 11.9944C58.6278 11.9423 59.1494 12.1094 59.545 12.4559C59.9406 12.8025 60.175 13.2974 60.1923 13.8231C60.2169 14.3738 60.0098 14.9096 59.6214 15.3008C59.233 15.692 58.6986 15.9028 58.1477 15.8821C57.6238 15.906 57.1133 15.7124 56.737 15.347C56.3607 14.9816 56.1522 14.4771 56.1607 13.9527ZM56.9094 13.7655C56.9094 13.0455 57.183 12.1816 58.1477 12.1816C59.1124 12.1816 59.4724 13.1463 59.4724 13.9383C59.4724 14.7302 59.2852 15.6517 58.2341 15.6517C59.242 15.6517 59.4292 14.759 59.4292 13.9815C59.4292 13.2039 59.0404 12.2392 58.1189 12.2392C57.1974 12.2392 56.9238 13.0455 56.9238 13.7655C56.9238 14.7158 57.3558 15.6085 58.2053 15.6085C57.3126 15.6085 56.8806 14.6726 56.8806 13.7223L56.9094 13.7655Z" fill="white"/>
<path d="M63.7633 14.7302V12.7143C63.7795 12.5935 63.7456 12.4714 63.6695 12.3762C63.5933 12.281 63.4816 12.2211 63.3602 12.2104H63.245V12.052H63.9937H64.656V12.2104H64.5121C64.2961 12.2104 64.0369 12.2104 64.0369 12.9015V15.3205C64.0221 15.5026 64.0221 15.6856 64.0369 15.8677H63.8209L61.0851 12.8007V15.0038C61.0851 15.4645 61.1715 15.6229 61.5747 15.6229H61.6755V15.7813H60.2356V15.6229H60.322C60.682 15.6229 60.7972 15.3781 60.7972 14.9462V12.6999C60.7972 12.4296 60.578 12.2104 60.3076 12.2104H60.2356V12.052H60.8548H61.3299L63.7057 14.7302H63.7633Z" fill="white"/>
<path d="M64.0801 15.8821H63.8497L61.1427 12.8583V15.0038C61.1427 15.4645 61.1427 15.5941 61.6179 15.5941H61.7331V15.8101H61.042H60.3076V15.5941H60.4084C60.754 15.5941 60.8548 15.3637 60.8548 14.9462V12.6999C60.8548 12.4455 60.6485 12.2392 60.394 12.2392H60.3076V12.0376H61.4307L63.7777 14.687V12.7143C63.7945 12.594 63.758 12.4723 63.6778 12.3811C63.5976 12.2898 63.4817 12.238 63.3602 12.2392H63.2306V12.0376H64.6705V12.2392H64.5121C64.2961 12.2392 64.0657 12.2392 64.0657 12.9015V15.3205C64.0505 15.4978 64.0505 15.676 64.0657 15.8533L64.0801 15.8821ZM63.8785 15.8821H64.0513C64.0362 15.7096 64.0362 15.5362 64.0513 15.3637L64.0513 12.9015C64.0513 12.2536 64.3105 12.196 64.5409 12.196V12.0808H63.2162V12.196H63.3602C63.4979 12.1862 63.6329 12.2388 63.7277 12.3392C63.8225 12.4397 63.8673 12.5773 63.8497 12.7143L63.8497 14.7302L61.3875 12.0808H60.322V12.196C60.4581 12.1921 60.5901 12.2435 60.6877 12.3384C60.7854 12.4333 60.8404 12.5638 60.8404 12.6999V14.9462C60.8404 15.3781 60.7108 15.6517 60.3364 15.6517V15.7525H61.7763V15.6517H61.7043C61.2867 15.6517 61.1859 15.4645 61.1859 15.0038V12.7431L63.9649 15.8389L63.8785 15.8821Z" fill="white"/>
<path d="M65.4479 15.0184C65.4003 15.1548 65.3618 15.2943 65.3327 15.4359C65.3327 15.5943 65.5631 15.6231 65.7359 15.6231V15.7815H64.512V15.6231C64.7227 15.6157 64.9066 15.4778 64.9727 15.2775L65.8223 12.8297C65.9071 12.6147 65.9745 12.3932 66.0238 12.1674C66.1933 12.1047 66.3571 12.0276 66.5134 11.937H66.5854C66.58 11.98 66.58 12.0236 66.5854 12.0666L67.6797 14.86C67.6797 15.0472 67.8093 15.2487 67.8669 15.4071C67.9244 15.5521 68.0719 15.6406 68.2269 15.6231L68.2269 15.7815H66.7582V15.6231C66.8878 15.6231 67.0894 15.6231 67.0894 15.4647C67.0728 15.336 67.0389 15.21 66.9886 15.0904L66.787 14.4568H65.5631L65.3903 15.0184L65.4479 15.0184ZM66.2398 12.657L65.7359 14.1688H66.7438L66.2398 12.657Z" fill="white"/>
<path d="M68.2989 15.8103H67.5646H66.7582V15.5943C66.8878 15.5943 67.075 15.5943 67.075 15.4647C67.0538 15.3353 67.0151 15.2093 66.9598 15.0904L66.8158 14.5432H65.6351L65.4767 15.0904C65.4228 15.2198 65.3841 15.3551 65.3615 15.4935C65.3615 15.6231 65.5631 15.6519 65.7359 15.6519H65.8223V15.8679H65.1743H64.5984V15.6519C64.8008 15.6522 64.9781 15.5163 65.0304 15.3207L65.8943 12.8729C65.8943 12.6714 66.0527 12.4122 66.0959 12.1962C66.2678 12.1395 66.4322 12.0622 66.5854 11.9658V12.0954L67.6797 14.86C67.7517 15.0472 67.8093 15.2488 67.8813 15.4071C67.9378 15.5363 68.0728 15.6125 68.2125 15.5943L68.2125 15.8103H68.2989ZM66.859 15.8103H68.2989V15.7095C68.1363 15.7267 67.9825 15.632 67.9245 15.4791C67.9245 15.3207 67.7949 15.1192 67.7229 14.932L66.7438 12.1386V12.009C66.5967 12.1035 66.4366 12.1763 66.2687 12.225C66.2195 12.4493 66.157 12.6705 66.0815 12.8873L65.2175 15.3351C65.16 15.5517 64.9664 15.7042 64.7424 15.7095V15.8103H65.9231V15.7095C65.7503 15.7095 65.5055 15.7095 65.5055 15.4935C65.5258 15.35 65.5645 15.2096 65.6207 15.076L65.7935 14.5H67.0462L67.2478 15.1336C67.3063 15.2563 67.3452 15.3875 67.363 15.5223C67.363 15.6951 67.1326 15.6951 67.003 15.7095V15.8103H66.859ZM65.7647 14.2408L66.2399 12.6282L66.7438 14.1832L65.7647 14.2408ZM65.8367 14.2408H66.7582L66.2975 12.801L65.8367 14.2408Z" fill="white"/>
<path d="M69.6524 15.2629C69.6524 15.4789 69.7964 15.5365 69.9691 15.5653C70.2038 15.5866 70.44 15.5866 70.6747 15.5653C70.874 15.5394 71.0551 15.436 71.1786 15.2773C71.2539 15.1564 71.3121 15.0255 71.3514 14.8886L71.4954 14.8886C71.4954 15.1909 71.3658 15.4933 71.3082 15.7957H68.4285V15.6373C68.63 15.6373 68.8316 15.6373 68.8316 15.2773V12.5272C68.8316 12.2392 68.63 12.2104 68.4285 12.2104V12.052H69.278H70.0843V12.2104H69.9547C69.7532 12.2104 69.5948 12.2104 69.5948 12.4984V15.2629H69.6524Z" fill="white"/>
<path d="M71.3082 15.8101H69.8684H68.4285V15.5941H68.5293C68.7308 15.5941 68.9036 15.5941 68.9036 15.2629V12.5272C68.9036 12.2536 68.7308 12.2392 68.5293 12.2392H68.4285V12.0376H70.1275V12.2392H69.9835C69.7676 12.2392 69.638 12.2392 69.638 12.4984V15.2629C69.638 15.4645 69.7676 15.5077 69.9403 15.5365H70.2283H70.6315C70.8301 15.519 71.0126 15.42 71.1354 15.2629C71.2121 15.1496 71.2659 15.0225 71.2938 14.8886L71.4954 14.8886C71.4954 15.2053 71.3658 15.4933 71.2938 15.7957L71.3082 15.8101ZM71.3082 15.8101C71.3082 15.5221 71.4522 15.2485 71.5098 14.9606H71.3946C71.3598 15.0922 71.3065 15.2183 71.2362 15.3349C71.1009 15.4942 70.9109 15.5969 70.7035 15.6229L70.2859 15.6229H69.9979C69.8108 15.6229 69.6524 15.5365 69.6524 15.3061V12.4984C69.6524 12.2104 69.8395 12.196 70.0411 12.196H70.1419V12.0808H68.5149V12.196C68.702 12.196 68.9468 12.196 68.9468 12.5272V15.2629C68.9468 15.6085 68.702 15.6517 68.5149 15.6517V15.7525H71.2794L71.3082 15.8101Z" fill="white"/>
<path d="M71.4377 11.9082C71.7479 11.9082 71.9993 12.1596 71.9993 12.4697C71.9993 12.7798 71.7479 13.0313 71.4377 13.0313C71.1276 13.0313 70.8762 12.7798 70.8762 12.4697C70.8722 12.3196 70.93 12.1744 71.0362 12.0682C71.1424 11.962 71.2876 11.9041 71.4377 11.9082ZM71.4377 12.9305C71.6866 12.9227 71.8842 12.7187 71.8841 12.4697C71.8762 12.2252 71.673 12.0326 71.4284 12.0378C71.1839 12.0431 70.9891 12.2441 70.9916 12.4888C70.9942 12.7334 71.1931 12.9303 71.4377 12.9305ZM71.1641 12.7721V12.2681V12.1961H71.4521C71.5529 12.1961 71.6393 12.1961 71.6393 12.3401C71.637 12.4193 71.5851 12.4886 71.5097 12.5129L71.5961 12.6425C71.5961 12.6425 71.6825 12.7577 71.7257 12.7721H71.6105C71.6105 12.7721 71.5097 12.6569 71.4089 12.5129V12.6857C71.4089 12.6857 71.4089 12.6857 71.4809 12.6857L71.1641 12.7721ZM71.3513 12.4697C71.3513 12.4697 71.4665 12.4697 71.4665 12.3257C71.4715 12.2939 71.461 12.2616 71.4382 12.2388C71.4154 12.2161 71.3832 12.2055 71.3513 12.2105V12.4697Z" fill="white"/>
</svg>
