<svg width="50" height="22" viewBox="0 0 50 22" fill="none" xmlns="http://www.w3.org/2000/svg">
<path d="M29.1 0H8.2H7.9L7.27 0.1L6.69 0.3L6.24 0.45L5.93 0.59L5.62 0.75L5.32 0.93L5 1.15L4.68 1.45C4.57884 1.55312 4.48527 1.6634 4.4 1.78L4.29 2L4.15 2.27C4.07418 2.4089 4.00738 2.55253 3.95 2.7C3.89099 2.86722 3.84092 3.03746 3.8 3.21C3.8 3.4 3.68 3.73 3.64 3.94C3.6 4.15 3.53 4.49 3.49 4.68C3.45 4.87 3.39 5.17 3.35 5.35C3.31 5.53 3.25 5.84 3.21 6.04L3.06 6.77C3.06 6.98 2.95 7.28 2.92 7.44C2.89 7.6 2.83 7.86 2.8 8C2.77 8.14 2.7 8.5 2.64 8.81C2.58 9.12 2.48 9.59 2.43 9.86C2.38 10.13 2.29 10.52 2.25 10.73C2.21 10.94 2.15 11.19 2.13 11.29C2.11 11.39 2.05 11.69 2 11.96C1.95 12.23 1.88 12.53 1.86 12.64C1.84 12.75 1.78 13.05 1.72 13.32C1.66 13.59 1.6 13.9 1.58 14C1.56 14.1 1.5 14.42 1.44 14.69C1.38 14.96 1.32 15.26 1.3 15.37C1.28 15.48 1.24 15.69 1.2 15.85C1.16 16.01 1.11 16.29 1.08 16.47C1.05 16.65 0.979999 16.97 0.929999 17.18L0.779999 17.9C0.779999 18.08 0.679999 18.39 0.64 18.58C0.6 18.77 0.539999 19.09 0.5 19.29L0.35 20C0.35 20.19 0.25 20.5 0.21 20.68C0.17 20.86 0.11 21.17 0.07 21.36C0.03 21.55 0 21.73 0 21.75V21.81H41.77H42.13L42.74 21.71L43.06 21.65L43.38 21.56L43.8 21.42L44.21 21.24L44.51 21.08L44.78 20.9L44.99 20.76L45.2 20.54L45.49 20.23C45.49 20.17 45.62 20.05 45.68 19.95C45.7521 19.8488 45.8157 19.7418 45.87 19.63C45.87 19.54 45.99 19.37 46.04 19.23L46.13 18.99L46.21 18.64C46.21 18.45 46.32 18.12 46.36 17.91C46.4 17.7 46.46 17.39 46.5 17.23C46.54 17.07 46.59 16.76 46.64 16.56C46.69 16.36 46.75 16.02 46.79 15.82C46.83 15.62 46.89 15.31 46.93 15.13C46.97 14.95 47.03 14.64 47.07 14.45C47.11 14.26 47.18 13.92 47.22 13.71C47.26 13.5 47.32 13.2 47.36 13.04C47.4 12.88 47.45 12.58 47.5 12.36C47.55 12.14 47.61 11.81 47.65 11.61C47.69 11.41 47.75 11.12 47.79 10.96C47.83 10.8 47.88 10.48 47.93 10.26C47.98 10.04 48.03 9.73 48.07 9.57C48.11 9.41 48.16 9.1 48.2 8.91C48.24 8.72 48.31 8.39 48.36 8.18L48.5 7.48C48.5 7.31 48.59 7.01 48.64 6.81C48.69 6.61 48.74 6.29 48.79 6.08C48.84 5.87 48.89 5.56 48.93 5.38C48.97 5.2 49.02 4.91 49.06 4.73C49.1 4.55 49.17 4.23 49.2 4.04C49.23 3.85 49.3 3.55 49.34 3.36C49.38 3.17 49.45 2.84 49.49 2.63C49.53 2.42 49.6 2.11 49.63 1.95C49.66 1.79 49.73 1.48 49.77 1.28C49.81 1.08 49.88 0.740002 49.93 0.550002C49.98 0.360002 50 0.08 50 0.05V0H29.1Z" fill="#B3131B"/>
<path d="M27.54 10.3501L27.45 10.6201C27.3816 10.7919 27.3281 10.9692 27.29 11.1501L27.22 11.4101V11.6501V11.8901V12.5301V12.7101V12.8901L27.3 13.0801L27.37 13.2701L27.46 13.4101L27.55 13.5401L27.69 13.6801L27.83 13.8201L27.97 13.9001L28.12 13.9701L28.32 14.0301L28.66 14.1001C28.7999 14.1077 28.9401 14.1077 29.08 14.1001L29.36 14.1001H29.68L30.19 14.0301L30.58 13.9301L30.8 13.8601C30.83 13.7795 30.8502 13.6956 30.86 13.6101C30.86 13.4801 30.92 13.3001 30.93 13.2201C30.94 13.1401 30.93 13.0601 30.93 13.0601C30.8412 13.11 30.7473 13.1502 30.65 13.1801L30.41 13.2701L30.06 13.3401L29.72 13.4001H29.13L28.96 13.3401L28.79 13.2901L28.66 13.1701L28.51 13.0001L28.43 12.8401L28.34 12.6901V12.4801V12.2701V11.7301V11.4001L28.39 11.0701L28.44 10.8901C28.44 10.8001 28.5 10.6801 28.52 10.6401C28.5468 10.5478 28.5802 10.4576 28.62 10.3701C28.674 10.2505 28.734 10.1336 28.8 10.0201L28.9 9.85012L29 9.76012L29.12 9.64012L29.24 9.56012L29.37 9.48012L29.54 9.43012L29.89 9.35012H30.08H30.36H30.63L30.96 9.42012L31.29 9.48012H31.43L31.57 9.53012C31.57 9.53012 31.57 9.44012 31.57 9.32012C31.57 9.20012 31.57 9.02012 31.63 8.90012C31.6445 8.82751 31.6445 8.75273 31.63 8.68012H31.41C31.3 8.68012 30.99 8.68012 30.72 8.62012H30.24H29.89H29.55L29.3 8.67012L29.05 8.73012L28.88 8.79012L28.65 9.00012L28.45 9.13012L28.19 9.37012L27.99 9.56012L27.89 9.72012C27.8027 9.85056 27.7258 9.98765 27.66 10.1301L27.54 10.3501Z" fill="white"/>
<path d="M31.6101 12.28V12.5V13V13.2V13.39L31.6701 13.51C31.7153 13.592 31.7689 13.6691 31.8301 13.74L31.9101 13.84L32.0601 13.93L32.2201 14.02H32.3901C32.4947 14.0518 32.6018 14.0752 32.7101 14.09L32.8601 14.09H33.5401L33.7601 14.03L34.0001 14L34.1401 13.93C34.2396 13.8882 34.3336 13.8345 34.4201 13.77C34.5116 13.7061 34.5984 13.636 34.6801 13.56C34.762 13.4781 34.8388 13.3912 34.9101 13.3C34.9371 13.2551 34.9708 13.2146 35.0101 13.18C35.0214 13.2663 35.0214 13.3537 35.0101 13.44C35.0021 13.5765 35.0021 13.7134 35.0101 13.85V14H35.9401V13.64V13.28L36.0001 12.82C36.0001 12.56 36.1001 12.18 36.1301 11.97C36.1601 11.76 36.2301 11.41 36.2701 11.19C36.3101 10.97 36.3701 10.62 36.4101 10.41L36.4801 10.05V9.41997L36.4101 9.26997L36.3401 9.11997L36.2201 8.99997L36.1201 8.90997L36.0001 8.85997L35.8401 8.76997H35.6001L35.3601 8.71997H35.0301H34.7101H34.2901L33.5601 8.77997H33.2601H32.8401V8.91997C32.8401 8.99997 32.7801 9.18997 32.7401 9.33997C32.7094 9.4341 32.6893 9.53137 32.6801 9.62997L32.9201 9.56997L33.5401 9.43997L33.9201 9.37997H34.2601H34.6001H34.8201H35.0401L35.1901 9.44997L35.3401 9.51997L35.4201 9.64997L35.5001 9.76997V10.15V10.37V10.58H33.5301L33.2301 10.67C33.0936 10.7028 32.9598 10.7462 32.8301 10.8H32.7001C32.6258 10.8319 32.5553 10.8722 32.4901 10.92L32.2901 11.04L32.1401 11.19C32.0601 11.28 31.9501 11.4 31.9001 11.47C31.8501 11.54 31.7801 11.68 31.7301 11.79L31.6501 11.99L31.6101 12.28ZM32.6101 12.28C32.6385 12.1693 32.6787 12.062 32.7301 11.96L32.8101 11.8L32.9601 11.65L33.1201 11.49L33.2801 11.42L33.4401 11.34L33.6401 11.29H33.8401H35.1101V11.49C35.1101 11.6 35.0401 11.8 35.0101 11.93C34.9801 12.06 34.9101 12.26 34.8701 12.36L34.7901 12.57L34.7001 12.74L34.6101 12.89L34.4601 13.04C34.4093 13.0963 34.3523 13.1466 34.2901 13.19C34.2453 13.2039 34.2043 13.2279 34.1701 13.26L34.0801 13.32L33.8701 13.39L33.6701 13.45H33.2601H33.1301C33.043 13.4271 32.959 13.3935 32.8801 13.35H32.7701L32.7001 13.27C32.659 13.2128 32.6223 13.1526 32.5901 13.09L32.5301 12.99V12.5L32.6101 12.28Z" fill="white"/>
<path d="M24.5299 14.0001H25.0699V13.7801C25.0699 13.6501 25.0699 13.4001 25.1399 13.2101C25.2099 13.0201 25.2299 12.6601 25.2699 12.4001C25.3099 12.1401 25.3899 11.7001 25.4499 11.4001C25.5099 11.1001 25.5599 10.8601 25.5799 10.8001C25.5839 10.7535 25.5839 10.7067 25.5799 10.6601C25.601 10.5802 25.6312 10.5031 25.6699 10.4301C25.7279 10.3003 25.7982 10.1764 25.8799 10.0601L25.9999 9.91009L26.1599 9.77009L26.3099 9.62009L26.4999 9.53009L26.6899 9.44009H27.2699L27.4199 9.49009H27.5699C27.5699 9.49009 27.5699 9.49009 27.5699 9.43009C27.5699 9.37009 27.5699 9.23009 27.6299 9.06009C27.6899 8.89009 27.6999 8.74009 27.6999 8.73009L27.5099 8.66009L27.1999 8.59009H27.0799H26.9099L26.6099 8.67009L26.3399 8.81009C26.2485 8.87393 26.1616 8.94411 26.0799 9.02009C25.987 9.11169 25.9033 9.21217 25.8299 9.32009L25.6599 9.54009V9.59009V9.49009L25.7299 9.09009C25.7299 8.92009 25.7899 8.77009 25.7999 8.74009H24.7999V8.80009C24.7999 8.80009 24.7999 9.03009 24.7399 9.25009C24.6799 9.47009 24.6399 9.82009 24.6099 10.0401C24.5799 10.2601 24.5099 10.6501 24.4699 10.9001C24.4299 11.1501 24.3599 11.5101 24.3299 11.6901C24.2999 11.8701 24.2299 12.2101 24.1899 12.4301L24.0399 13.2101C24.0399 13.4301 23.9399 13.6801 23.9199 13.7801C23.9409 13.8554 23.9676 13.9289 23.9999 14.0001L24.5299 14.0001Z" fill="white"/>
<path d="M18.9299 12.5999V12.7699C18.9539 12.8716 18.984 12.9718 19.0199 13.0699C19.0519 13.1569 19.092 13.2406 19.1399 13.3199C19.1866 13.4035 19.2438 13.4808 19.3099 13.5499C19.3796 13.6242 19.4567 13.6912 19.5399 13.7499L19.8099 13.9099L19.9999 13.9999H20.2099L20.5899 14.0699H21.0399H21.3199H21.5999L22.1599 13.9999L22.7399 13.8899L23.0499 13.8299V13.7099C23.0499 13.6499 23.0499 13.4599 23.1199 13.2999L23.1899 12.9999L23.0899 13.0499L22.7299 13.1799L22.4699 13.2699L22.1899 13.3199L21.9099 13.3699H20.9999L20.8499 13.3199L20.5699 13.2099L20.4499 13.1499L20.3499 13.0599L20.2499 12.9699L20.1799 12.8299L20.0999 12.6999L20.0499 12.5199L19.9999 12.3699V11.7399V11.4599L20.0499 11.1799H20.4299H20.8099H23.6199V10.9999C23.6199 10.8999 23.6799 10.6999 23.6999 10.5499V10.2699V9.78992V9.61992V9.43992L23.6299 9.32992C23.5916 9.25779 23.5446 9.19062 23.4899 9.12992C23.4562 9.08421 23.4194 9.04079 23.3799 8.99992L23.1699 8.86992L22.9999 8.77992L22.7799 8.71992L22.5599 8.66992H22.2899H22.0099H21.7999H21.5499L21.2499 8.72992L20.9399 8.78992L20.7499 8.85992L20.3999 8.99992C20.302 9.05617 20.2084 9.11968 20.1199 9.18992L19.8799 9.40992C19.798 9.49531 19.7212 9.58547 19.6499 9.67992C19.5899 9.76992 19.5099 9.91992 19.4599 10.0099C19.4099 10.0999 19.3499 10.2499 19.3199 10.3199C19.2899 10.3899 19.2299 10.5299 19.1999 10.6299C19.1699 10.7299 19.1099 10.9399 19.0699 11.0699C19.0299 11.1999 18.9999 11.4399 18.9699 11.5799V11.8399V12.5899L18.9299 12.5999ZM20.3099 10.3599C20.3539 10.244 20.4039 10.1305 20.4599 10.0199L20.5299 9.86992L20.6999 9.70992L20.8699 9.53992L20.9999 9.45992C21.0866 9.41828 21.177 9.38481 21.2699 9.35992C21.3863 9.34842 21.5035 9.34842 21.6199 9.35992H21.8699H22.0699H22.2599L22.3999 9.41992L22.5399 9.48992L22.6199 9.56992C22.6607 9.61679 22.6975 9.66696 22.7299 9.71992V9.78992V9.93992V10.0799V10.3299V10.5799H20.2499L20.3099 10.3599Z" fill="white"/>
<path d="M40.26 10.71C40.26 10.8 40.16 11.02 40.11 11.18L40.04 11.49V11.88V12.27V12.59V12.9V13.02L40.13 13.27V13.4L40.23 13.53L40.33 13.66L40.44 13.75L40.55 13.85L40.7 13.92C40.7991 13.9703 40.903 14.0105 41.01 14.04L41.33 14.1C41.4598 14.112 41.5903 14.112 41.72 14.1H42H42.23L42.59 14.03L42.86 13.92L43.02 13.84L43.15 13.72L43.28 13.61L43.41 13.43L43.57 13.21V13.29C43.5749 13.3766 43.5749 13.4634 43.57 13.55C43.57 13.62 43.57 13.75 43.57 13.84V14H44.57V13.66L44.64 13.02C44.64 12.66 44.75 12.19 44.78 12.02C44.81 11.85 44.87 11.48 44.9 11.31C44.93 11.14 44.98 10.84 45.01 10.64C45.04 10.44 45.11 10.09 45.15 9.86004C45.19 9.63004 45.26 9.26004 45.3 9.05004C45.34 8.84004 45.4 8.50004 45.44 8.30004C45.48 8.10004 45.54 7.77004 45.58 7.55004C45.62 7.33004 45.69 7.01004 45.72 6.85004L45.78 6.54004H44.62V6.70004C44.62 6.79004 44.57 7.07004 44.53 7.34004C44.49 7.61004 44.42 8.02004 44.38 8.27004C44.34 8.52004 44.3 8.77004 44.29 8.81004V8.90004L44 8.82004L43.76 8.76004H43.43H43.11H42.83H42.55L42.3 8.82004L42 8.80004L41.76 8.92004L41.49 9.00004L41.32 9.13004L41.14 9.26004L41 9.46004C40.9012 9.56249 40.8109 9.67286 40.73 9.79004L40.6 10L40.46 10.28L40.26 10.71ZM41.09 12.15V11.82V11.53V11.24L41.15 11.03C41.15 10.92 41.21 10.82 41.21 10.8C41.231 10.7312 41.2578 10.6643 41.29 10.6C41.3353 10.4895 41.3888 10.3826 41.45 10.28C41.4981 10.1764 41.5585 10.0791 41.63 9.99004C41.6949 9.89654 41.7686 9.80948 41.85 9.73004C41.9217 9.66394 41.9987 9.60375 42.08 9.55004L42.19 9.48004L42.39 9.41004L42.59 9.34004H43.43L43.6701 9.41004L43.9801 9.50004H44.0501V9.60004C44.0501 9.60004 44.0501 9.81004 43.9801 9.97004L43.8501 10.68C43.8501 10.9 43.7501 11.24 43.7101 11.43C43.6701 11.62 43.6201 11.85 43.6001 11.96L43.5101 12.28C43.4805 12.376 43.4437 12.4696 43.4001 12.56C43.356 12.65 43.3059 12.7369 43.25 12.82C43.2048 12.8898 43.1511 12.9536 43.09 13.01L42.87 13.18L42.73 13.27L42.53 13.34L42.33 13.4H42H41.88L41.62 13.32L41.5 13.27L41.4 13.18L41.29 13.1L41.24 13L41.16 12.85V12.69V12.53L41.09 12.15Z" fill="white"/>
<path d="M37.89 14V13.67L37.96 13.25C37.96 13.02 38.05 12.65 38.08 12.44C38.11 12.23 38.16 11.95 38.18 11.83C38.2 11.71 38.25 11.46 38.29 11.26C38.33 11.06 38.39 10.86 38.41 10.79C38.414 10.7434 38.414 10.6965 38.41 10.65C38.4336 10.5631 38.4671 10.4792 38.51 10.4L38.62 10.18L38.75 9.98996L38.89 9.80996L39.04 9.69996C39.1353 9.62957 39.2356 9.56607 39.34 9.50996L39.48 9.43996H40.11H40.24H40.36V9.41996C40.3693 9.29513 40.3894 9.17133 40.42 9.04996L40.47 8.76996H40.41L40.22 8.70996H40.09H39.63L39.45 8.76996L39.26 8.83996L39.12 8.91996L38.98 9.00996L38.8 9.19996L38.62 9.38996L38.53 9.52996C38.47 9.60996 38.43 9.67996 38.42 9.66996C38.41 9.65996 38.42 9.49996 38.49 9.29996C38.56 9.09996 38.56 8.89996 38.56 8.86996V8.74996H37.62C37.62 8.74996 37.62 8.91996 37.57 9.10996C37.52 9.29996 37.49 9.66996 37.45 9.91996C37.41 10.17 37.34 10.6 37.29 10.85C37.24 11.1 37.19 11.46 37.15 11.64C37.11 11.82 37.06 12.16 37.02 12.38L36.87 13.15C36.82 13.36 36.77 13.63 36.74 13.76V13.99H37.84L37.89 14Z" fill="white"/>
<path d="M4.78006 11.9999C4.78006 12.2299 4.67006 12.5499 4.63006 12.7199C4.59006 12.8899 4.56006 13.0799 4.55006 13.1499C4.54006 13.2199 4.55006 13.4199 4.46006 13.5899C4.37006 13.7599 4.40006 13.9299 4.40006 13.9499H5.63006V13.6799C5.63006 13.5299 5.70006 13.2499 5.74006 13.0399L5.87006 12.2099C5.87006 11.9499 5.98006 11.5699 6.02006 11.3599C6.06006 11.1499 6.11006 10.8299 6.14006 10.6399C6.17006 10.4499 6.21006 10.2999 6.22006 10.2899H9.59006V10.4399C9.59006 10.5199 9.53006 10.7699 9.49006 10.9899L9.34006 11.8199C9.29006 12.0599 9.23006 12.3999 9.20006 12.5699C9.17006 12.7399 9.10006 13.1099 9.05006 13.3799C9.00006 13.6499 9.00006 13.9999 9.00006 13.9999H10.2301V13.8499C10.2301 13.7599 10.2301 13.5999 10.2301 13.4999C10.2301 13.3999 10.2801 13.1699 10.3101 13.0099C10.3401 12.8499 10.4001 12.5099 10.4401 12.2699C10.4801 12.0299 10.5401 11.6299 10.5901 11.3799C10.6401 11.1299 10.6901 10.7399 10.7301 10.5399C10.7701 10.3399 10.8201 9.9999 10.8601 9.7799C10.9001 9.5599 11.0001 9.1999 11.0501 8.9999C11.1001 8.7999 11.1501 8.4299 11.1901 8.2299C11.2301 8.0299 11.2901 7.6899 11.3301 7.4499C11.3701 7.2099 11.4301 6.9399 11.4501 6.8399V6.6499H10.2401V6.7699C10.2401 6.8399 10.2401 7.0199 10.1701 7.1799C10.1001 7.3399 10.0901 7.6299 10.0601 7.8199C10.0301 8.0099 9.96006 8.3599 9.92006 8.6099C9.88006 8.8599 9.83006 9.1899 9.80006 9.3499V9.6299H8.88006H7.97006H7.20006H6.43006C6.42197 9.55679 6.42197 9.48301 6.43006 9.4099C6.43006 9.2899 6.49006 9.0899 6.52006 8.9499C6.55006 8.8099 6.59006 8.5599 6.63006 8.3699C6.67006 8.1799 6.70006 7.9499 6.72006 7.8499C6.74006 7.7499 6.72006 7.5899 6.78006 7.4899L6.85006 6.9999C6.85006 6.8399 6.91006 6.6999 6.92006 6.6699H5.69006V6.8899C5.69006 7.0199 5.64006 7.1899 5.63006 7.2799C5.62006 7.3699 5.57006 7.6599 5.53006 7.9199C5.49006 8.1799 5.42006 8.5799 5.39006 8.7999L5.25006 9.6699C5.25006 9.9299 5.14006 10.3399 5.09006 10.5799C5.04006 10.8199 4.99006 11.1499 4.96006 11.3199C4.93006 11.4899 4.82006 11.7799 4.78006 11.9999Z" fill="white"/>
<path d="M11.35 13.6501C11.35 13.7801 11.29 13.9201 11.28 13.9501V14.0001H12.37C12.3766 13.9603 12.3766 13.9198 12.37 13.8801C12.37 13.8301 12.37 13.5801 12.44 13.3201C12.51 13.0601 12.55 12.6301 12.6 12.3801C12.65 12.1301 12.7 11.7401 12.74 11.5401C12.78 11.3401 12.83 11.0001 12.87 10.8001C12.91 10.6001 12.97 10.2601 13.01 10.0801C13.05 9.90006 13.11 9.53006 13.16 9.28006C13.1877 9.12143 13.2244 8.9645 13.27 8.81006L12.2 8.81006V9.14006C12.2 9.32006 12.12 9.68006 12.08 9.93006C12.04 10.1801 11.98 10.5801 11.94 10.8101C11.9 11.0401 11.84 11.3901 11.8 11.6001C11.76 11.8101 11.7 12.1501 11.66 12.3401C11.62 12.5301 11.57 12.8501 11.52 13.0701C11.47 13.2901 11.37 13.5201 11.35 13.6501Z" fill="white"/>
<path d="M12.5199 7.74004L12.6199 7.79004L12.7299 7.83004L12.8799 7.84004H13.0299L13.1599 7.79004L13.2799 7.75004L13.3899 7.64004L13.4899 7.53004L13.5499 7.39004L13.6099 7.24004V7.03004V6.81004L13.5599 6.73004L13.5099 6.64004L13.4199 6.59004L13.3399 6.54004H13.1399H12.9599L12.8299 6.59004L12.6999 6.65004L12.6199 6.73004L12.5499 6.81004L12.4899 6.95004L12.4299 7.09004L12.4199 7.31004L12.4099 7.52004L12.4599 7.63004L12.5199 7.74004Z" fill="white"/>
<path d="M13.4599 13.49C13.4599 13.67 13.3599 14.01 13.3199 14.24C13.2799 14.47 13.2099 14.86 13.1699 15.08C13.1299 15.3 13.0599 15.65 13.0099 15.86C12.9599 16.07 12.9299 16.27 12.9299 16.3V16.36H13.9999C14.0055 16.3202 14.0055 16.2798 13.9999 16.24C13.9999 16.24 13.9999 16.05 13.9999 15.91L14.1099 15.18C14.1099 14.92 14.2199 14.54 14.2499 14.32C14.2799 14.1 14.3199 13.83 14.3399 13.71C14.3467 13.6348 14.3636 13.5608 14.3899 13.49C14.418 13.5271 14.4415 13.5673 14.4599 13.61L14.5299 13.73L14.6699 13.87L14.8099 14.01L14.9799 14.08L15.1499 14.15H15.3599H15.5599H15.8299H16.0899L16.3699 14.08L16.6499 14L16.7999 13.93C16.9149 13.8796 17.0253 13.8193 17.1299 13.75L17.3099 13.63L17.4699 13.47L17.7599 13.15C17.8899 13 17.9999 13 17.9999 13L18.0699 12.88C18.1384 12.7679 18.1986 12.6509 18.2499 12.53C18.3099 12.39 18.3999 12.14 18.4499 11.97L18.5499 11.67L18.5999 11.4C18.6371 11.2251 18.6638 11.0481 18.6799 10.87V10.6V10.38V10.1L18.6199 9.87L18.5699 9.64L18.4899 9.47L18.3999 9.3L18.2399 9.13L17.9999 9L17.8099 8.9L17.6099 8.8L17.3999 8.75H17.1799H16.9699H16.7499H16.5099H16.2699L16.0799 8.8H15.8799L15.7099 8.88L15.4099 9.04L15.2399 9.16C15.213 9.19378 15.1788 9.22112 15.1399 9.24H15.0799V9.02C15.0851 8.93675 15.0851 8.85325 15.0799 8.77H14.1599L14.0699 9.28C14.0699 9.56 13.9599 10 13.9199 10.28C13.8799 10.56 13.8099 10.9 13.7799 11.11C13.7499 11.32 13.6799 11.69 13.6399 11.93C13.5999 12.17 13.5299 12.56 13.4899 12.79C13.4499 13.02 13.4899 13.31 13.4599 13.49ZM14.6699 12.34V12.12L14.7399 11.78C14.7399 11.59 14.8399 11.24 14.8799 11C14.9199 10.76 14.9899 10.4 15.0199 10.2L15.0899 9.85L15.2299 9.73L15.5099 9.54L15.6499 9.46L15.8299 9.4L15.9999 9.35H16.2299H16.4599H16.6399H16.8299L16.9599 9.41L17.0899 9.47L17.1999 9.58L17.3099 9.69L17.3699 9.81C17.4124 9.89982 17.4459 9.9936 17.4699 10.09V10.25V11.25L17.3999 11.54C17.3605 11.7195 17.3105 11.8965 17.2499 12.07L17.1599 12.31L17.0599 12.51C16.9999 12.62 16.9099 12.77 16.8599 12.84C16.8099 12.918 16.7494 12.9887 16.6799 13.05L16.4999 13.19L16.3999 13.26L16.1899 13.34L15.9799 13.41H15.7599H15.5499H15.4199H15.2799L15.1399 13.34L14.9999 13.27L14.8999 13.18L14.7999 13.08L14.7799 13C14.7351 12.9156 14.7047 12.8244 14.6899 12.73V12.6L14.6699 12.34Z" fill="white"/>
</svg>
