<svg width="39" height="30" viewBox="0 0 39 30" fill="none" xmlns="http://www.w3.org/2000/svg">
<path d="M39 24C38.9725 27.3414 36.2414 30.0277 32.9 30L0 30V6.05C0 2.70868 2.70868 -9.53674e-07 6.05 0H39V24Z" fill="white"/>
<path d="M28.24 17.8099H30.74H31.05C31.5713 17.6917 31.9385 17.2244 31.93 16.6899C31.9274 16.1593 31.565 15.698 31.05 15.5699C30.9473 15.5538 30.8427 15.5538 30.74 15.5699L28.24 15.5699V17.8599V17.8099Z" fill="url(#paint0_linear_71_223)"/>
<path d="M30.4501 2C29.3 2 28.1971 2.45757 27.3848 3.27177C26.5725 4.08596 26.1174 5.18988 26.1201 6.34V10.84H32.2401C32.3832 10.8297 32.5269 10.8297 32.6701 10.84C34.0501 10.91 35.0701 11.63 35.0701 12.84C35.0701 13.9446 34.1747 14.84 33.0701 14.84C34.4701 14.93 35.5401 15.72 35.5401 16.93C35.5401 18.14 34.3501 19.1 32.7801 19.1H26.1001V28H32.4501C34.8431 28 36.7846 26.063 36.7901 23.67V2H30.4501Z" fill="url(#paint1_linear_71_223)"/>
<path d="M31.62 13.1899C31.6237 12.6813 31.245 12.251 30.74 12.1899H30.5H28.24V14.2899H30.5C30.5791 14.3073 30.6609 14.3073 30.74 14.2899C31.2856 14.2272 31.6785 13.7361 31.62 13.1899Z" fill="url(#paint2_linear_71_223)"/>
<path d="M6.49989 2C5.34618 2 4.24027 2.46034 3.42739 3.27889C2.61456 4.09735 2.1619 5.20642 2.16989 6.36V17.05C3.32536 17.6447 4.60071 17.9696 5.89989 18C6.50154 18.0707 7.10397 17.8744 7.54837 17.4627C7.99277 17.051 8.23452 16.4653 8.20989 15.86V10.83H11.9299V15.83C11.9299 17.78 10.7099 19.37 6.59989 19.37C5.09688 19.3707 3.59932 19.1893 2.13989 18.83L2.13989 28H8.49989C9.65003 28 10.7529 27.5424 11.5652 26.7282C12.3775 25.914 12.8325 24.8101 12.8299 23.66V2H6.49989Z" fill="url(#paint3_linear_71_223)"/>
<path d="M18.4799 2C16.083 2 14.1399 3.94308 14.1399 6.34V12C15.2399 11.08 17.1399 10.48 20.2099 10.62C21.3604 10.692 22.5018 10.8694 23.6199 11.15L23.6199 13C22.6023 12.4553 21.4812 12.1316 20.3299 12.05C17.9999 11.88 16.5999 13.05 16.5999 15.05C16.5999 17.05 17.9999 18.22 20.3299 18.05C21.4786 17.9542 22.5969 17.6313 23.6199 17.1L23.6199 18.93C22.5014 19.2067 21.36 19.3807 20.2099 19.45C17.1399 19.6 15.2099 19 14.1399 18.07V28H20.4999C22.8913 28 24.8299 26.0614 24.8299 23.67V2H18.4799Z" fill="url(#paint4_linear_71_223)"/>
<defs>
<linearGradient id="paint0_linear_71_223" x1="29.1625" y1="16.1334" x2="29.1625" y2="16.1334" gradientUnits="userSpaceOnUse">
<stop offset="1" stop-color="#5CB531"/>
<stop offset="0.74" stop-color="#40A737"/>
<stop offset="0.23" stop-color="#00873F"/>
<stop stop-color="#007940"/>
</linearGradient>
<linearGradient id="paint1_linear_71_223" x1="28.7726" y1="8.5" x2="28.7726" y2="8.5" gradientUnits="userSpaceOnUse">
<stop offset="1" stop-color="#5CB531"/>
<stop offset="0.74" stop-color="#40A737"/>
<stop offset="0.23" stop-color="#00873F"/>
<stop stop-color="#007940"/>
</linearGradient>
<linearGradient id="paint2_linear_71_223" x1="29.0864" y1="12.7182" x2="29.0864" y2="12.7182" gradientUnits="userSpaceOnUse">
<stop offset="1" stop-color="#5CB531"/>
<stop offset="0.74" stop-color="#40A737"/>
<stop offset="0.23" stop-color="#00873F"/>
<stop stop-color="#007940"/>
</linearGradient>
<linearGradient id="paint3_linear_71_223" x1="4.8124" y1="8.5" x2="4.8124" y2="8.5" gradientUnits="userSpaceOnUse">
<stop offset="1" stop-color="#006FBC"/>
<stop offset="0.83" stop-color="#0066B1"/>
<stop offset="0.48" stop-color="#004E94"/>
<stop stop-color="#1F286F"/>
</linearGradient>
<linearGradient id="paint4_linear_71_223" x1="16.8124" y1="8.5" x2="16.8124" y2="8.5" gradientUnits="userSpaceOnUse">
<stop offset="1" stop-color="#E60039"/>
<stop offset="0.86" stop-color="#DC0436"/>
<stop offset="0.57" stop-color="#BE1833"/>
<stop offset="0.17" stop-color="#882730"/>
<stop stop-color="#6C2C2F"/>
</linearGradient>
</defs>
</svg>
