<svg width="49" height="31" viewBox="0 0 49 31" fill="none" xmlns="http://www.w3.org/2000/svg">
<rect x="17.8362" y="3.28369" width="13.05" height="23.52" fill="#FF5F00"/>
<path d="M18.6261 15.0637C18.6675 10.4729 20.7761 6.14539 24.3661 3.28374C18.2455 -1.60911 9.39005 -0.966353 4.04011 4.75907C-1.30983 10.4845 -1.35136 19.3631 3.94479 25.1384C9.24093 30.9136 18.09 31.6391 24.2561 26.8038C20.6904 23.9514 18.618 19.63 18.6261 15.0637Z" fill="#EB001B"/>
<path d="M48.5562 15.0636C48.5543 20.7874 45.2952 26.0111 40.1551 28.5291C35.0149 31.0471 28.8899 30.4204 24.3662 26.9136C30.8147 21.9142 31.992 12.635 26.9962 6.18364L26.8462 5.98364C26.1067 5.07717 25.2757 4.24945 24.3662 3.51364C30.8435 -1.52846 40.1706 -0.427752 45.2962 5.98364C47.429 8.52582 48.5849 11.7454 48.5562 15.0636ZM47.1062 23.8736H47.3262V23.7636H46.8762V23.8736L47.1062 23.8736ZM48.1062 24.3236V23.7636H47.9962L47.7662 24.2136L47.5462 23.7636H47.4362V24.3236H47.5462V23.8736L47.7662 24.2136L47.8862 24.2136L47.9962 23.8736V24.3236H48.1062Z" fill="#F79E1B"/>
</svg>
