<svg width="50" height="17" viewBox="0 0 50 17" fill="none" xmlns="http://www.w3.org/2000/svg">
<path d="M21.6701 15.95H17.6201L20.1501 0.280029H24.2001L21.6701 15.95Z" fill="white"/>
<path d="M36.3499 0.670097C35.1925 0.221852 33.9612 -0.00540788 32.72 9.76862e-05C28.72 9.67325e-05 25.9 2.1301 25.88 5.1801C25.88 7.4301 27.88 8.6801 29.43 9.4301C30.9799 10.1801 31.53 10.7001 31.53 11.4301C31.53 12.4301 30.27 12.9701 29.1 12.9701C27.7835 13.0072 26.4782 12.7186 25.3 12.1301L24.77 11.8801L24.2 15.4001C25.6408 15.9592 27.1744 16.2408 28.72 16.2301C32.97 16.2301 35.72 14.1301 35.77 10.8801C35.77 9.1001 34.7 7.7301 32.3699 6.6201C30.9499 5.9001 30.0799 5.4201 30.0799 4.6801C30.0799 3.9401 30.8199 3.3301 32.4199 3.3301C33.452 3.30645 34.4764 3.51134 35.42 3.9301L35.7899 4.1001L36.3499 0.670097Z" fill="white"/>
<path d="M41.73 10.4001C42.07 9.50007 43.35 6.00007 43.35 6.00007C43.35 6.00007 43.68 5.08007 43.88 4.50007L44.17 5.85007C44.17 5.85007 44.93 9.60007 45.1 10.3801L41.73 10.4001ZM46.73 0.280067H43.6C42.677 0.167986 41.7986 0.706662 41.48 1.58007L35.47 16.0001H39.72L40.57 13.6501H45.77C45.88 14.2001 46.25 16.0001 46.25 16.0001H50L46.73 0.280067Z" fill="white"/>
<path d="M14.23 0.280029L10.27 11L9.82998 8.80003C8.84296 5.99117 6.84703 3.64951 4.22998 2.23003L7.86998 15.93H12.15L18.52 0.280029H14.23Z" fill="white"/>
<path d="M6.58 0.279964H0.07L0 0.599964C5.08 1.89996 8.45 4.99996 9.83 8.79996L8.42 1.59996C8.23572 0.753347 7.44102 0.183237 6.58 0.279964Z" fill="#FAA61A"/>
</svg>
