<svg width="50" height="25" viewBox="0 0 50 25" fill="none" xmlns="http://www.w3.org/2000/svg">
<path d="M1.56518 19.9401C1.30458 19.4997 1.06758 19.0457 0.855182 18.5801C-0.20723 16.179 -0.282659 13.4563 0.645179 11.0001C1.54893 8.40632 3.49063 6.30523 6.00518 5.20008C9.08519 3.87672 12.6158 4.13025 15.4752 5.88008C17.4147 7.06699 18.9004 8.86964 19.6952 11.0001L20.0452 11.8901L1.56518 19.9401ZM7.73518 9.19008C5.59292 10.0788 4.32234 12.3034 4.64518 14.6001L13.9352 10.6001C12.4858 8.68578 9.86988 8.09087 7.73518 9.19008ZM15.0952 17.8901L14.9052 17.7601C14.3059 18.7029 13.4289 19.4366 12.3952 19.8601C10.6575 20.7937 8.52779 20.5842 7.00518 19.3301L6.87518 19.5201L4.51518 23.0501C5.10131 23.4487 5.72817 23.784 6.38518 24.0501C8.9032 25.1534 11.7714 25.1352 14.2752 24.0001C16.0806 23.2526 17.6178 21.9768 18.6852 20.3401L15.0952 17.8901Z" fill="white"/>
<path d="M26.5051 0V19.61L29.5551 20.85L27.8151 24.85L24.4551 23.45C23.7774 23.1547 23.2005 22.6682 22.7951 22.05C22.345 21.3212 22.1189 20.4762 22.1451 19.62V0H26.5051Z" fill="white"/>
<path d="M34.4051 14.6099C34.4014 13.0068 35.0948 11.4813 36.3051 10.4299L33.1751 6.93994C30.9773 8.88543 29.719 11.6798 29.719 14.6149C29.719 17.5501 30.9773 20.3445 33.1751 22.2899L36.3051 18.7999C35.0944 17.7447 34.4012 16.216 34.4051 14.6099Z" fill="white"/>
<path d="M40.0051 20.18C39.4064 20.1814 38.8117 20.0834 38.2451 19.89L36.7051 24.33C39.486 25.27 42.5368 24.97 45.0814 23.5064C47.6261 22.0427 49.4193 19.5565 50.0051 16.68L45.4051 15.75C44.8729 18.3141 42.6237 20.1593 40.0051 20.18Z" fill="white"/>
<path d="M40.0051 4.37012C38.9003 4.37047 37.8028 4.54945 36.7551 4.90012L38.2051 9.34012C38.7862 9.15072 39.394 9.05618 40.0051 9.06012C42.6487 9.0592 44.9274 10.9198 45.4551 13.5101L50.0051 12.5801C49.0384 7.81959 44.8628 4.39143 40.0051 4.37012Z" fill="white"/>
</svg>
